<?xml version="1.0" standalone="no"?><!DOCTYPE svg PUBLIC "-//W3C//DTD SVG 1.1//EN" "http://www.w3.org/Graphics/SVG/1.1/DTD/svg11.dtd"><svg t="1532316431260" class="icon" style="" viewBox="0 0 1024 1024" version="1.1" xmlns="http://www.w3.org/2000/svg" p-id="6688" xmlns:xlink="http://www.w3.org/1999/xlink" width="200" height="200"><defs><style type="text/css"></style></defs><path d="M575.756581 785.070282l20.135596 0 0 3.473101-20.135596 0 0-3.473101Z" p-id="6689" fill="#1296db"></path><path d="M664.349315 763.576759l4.983501 0 0 16.10684-4.983501 0 0-16.10684Z" p-id="6690" fill="#1296db"></path><path d="M433.10565 771.780605l-15.528672 0c-0.050142 0.067538-0.100284 0.125867-0.150426 0.176009 1.946328 2.50096 4.405333 4.555759 7.374968 6.166443C428.273599 776.260639 431.042665 774.146489 433.10565 771.780605z" p-id="6691" fill="#1296db"></path><path d="M442.770777 763.777327l-36.846186 0 0 37.70167 36.846186 0L442.770777 763.777327zM435.169659 799.818171c-7.416923-1.64343-15.386432-3.052522-23.909549-4.227278l1.057075-3.474125c8.389064 1.107217 16.45988 2.399653 24.211425 3.875261L435.169659 799.818171zM416.545486 788.895401l1.006933-3.371794c4.932336 0.737804 10.117428 1.576915 15.553231 2.51631l-1.057075 3.52222C426.545234 790.455943 421.377538 789.56669 416.545486 788.895401zM440.001711 786.277784c-5.955642-1.358951-10.990309-2.894933-15.099906-4.605901-4.111644 1.846044-9.56382 3.64911-16.359596 5.411243-0.469698-1.107217-1.040702-2.181689-1.711991-3.221368 5.889127-1.208525 10.754948-2.592035 14.597463-4.152577-2.365884-1.62808-4.40431-3.498684-6.116301-5.611811-1.594311 1.526773-3.330862 3.019777-5.209652 4.479011-0.671289-0.704035-1.493004-1.526773-2.466168-2.466168 4.596691-3.322675 8.372691-7.230682 11.32493-11.728112l3.322675 1.559519c-0.621147 0.923022-1.292436 1.829671-2.013867 2.717901l17.818831 0 0 2.969635c-2.466168 2.987031-5.611811 5.680373-9.437953 8.080026 3.539616 1.191128 7.877411 2.121314 13.011338 2.792603C440.890964 784.013207 440.337355 785.27085 440.001711 786.277784z" p-id="6692" fill="#1296db"></path><path d="M680.052972 763.475452l5.033643 0 0 16.208147-5.033643 0 0-16.208147Z" p-id="6693" fill="#1296db"></path><path d="M575.756581 791.664467l20.135596 0 0 3.473101-20.135596 0 0-3.473101Z" p-id="6694" fill="#1296db"></path><path d="M825.425897 278.229792c-78.336136-62.058404-179.054025-87.49268-274.68506-111.908766-76.301803-19.329231-104.787578-23.39892-154.637939-53.919027-36.625152-23.39892-118.012787-64.092737-125.133975-54.937217-8.139378 8.139378 17.294898 35.606962 27.468608 69.179592 15.260565 47.816029 3.052522 86.47449-35.606962 115.978455-89.527013 68.162426-206.522634 187.193403-198.383256 352.004029 11.190877 224.834698 216.696344 380.489804 467.982484 364.212072 252.303306-16.277732 422.201811-179.055049 427.288666-403.888723C962.768939 446.092941 914.95291 351.479073 825.425897 278.229792zM383.122259 766.193353l3.573385 0 0 29.547966-3.573385 0L383.122259 766.193353zM301.024449 761.412466l40.821731 0 0 3.774977-40.821731 0L301.024449 761.412466zM296.594557 800.875247c3.75758-4.865821 7.399527-10.56973 10.92277-17.114796l3.674693 2.065032c-3.523243 6.107091-7.281847 11.913331-11.275811 17.416671C298.87653 802.470581 297.769312 801.680589 296.594557 800.875247zM324.732407 800.372803c0 4.193509-2.198062 6.307659-6.594185 6.341429-2.333138 0-4.949732-0.017396-7.852852-0.050142-0.201591-1.376347-0.453325-2.920516-0.7552-4.630461 2.651386 0.268106 5.151323 0.403183 7.499811 0.403183 2.28095 0 3.422959-1.125637 3.422959-3.373841l0-19.026332L296.393989 780.036639l0-3.774977 49.933249 0 0 3.774977-21.593807 0L324.733431 800.372803zM342.802972 802.13289c-4.160763-6.073322-8.054443-11.408841-11.67797-16.006556l3.371794-2.2656c4.128017 5.067412 8.120958 10.352789 11.979846 15.85613L342.802972 802.13289zM357.802594 807.519574l-3.422959 0 0-29.446659c-1.476631 3.070942-3.121084 6.109138-4.933359 9.111518-0.402159-1.342578-0.939395-2.885723-1.610684-4.631484 4.328585-7.349385 7.53358-15.485693 9.614985-24.411993l3.724835 0.704035c-0.890276 3.759627-2.012843 7.467065-3.372817 11.124362L357.802594 807.519574zM381.913734 764.582669l-10.268878 0c-0.51984 2.75167-1.099031 5.336542-1.735527 7.751544l9.78997 0 0 3.474125c-1.376347 13.222139-6.762007 23.825638-16.158005 31.81152-0.737804-1.00591-1.660826-2.096754-2.768043-3.27151 4.748141-3.824095 8.422833-8.438183 11.023054-13.84124-1.660826-1.358951-3.489474-2.801812-5.485945-4.328585l2.012843-2.819209c1.526773 1.040702 3.179412 2.257413 4.957919 3.64911 1.291412-3.439332 2.189875-7.173376 2.693342-11.199063l-7.073092 0c-1.896186 6.14086-4.236488 11.07422-7.020904 14.799054-0.705058-1.074472-1.5104-2.114151-2.416026-3.121084 3.792373-5.453199 6.602372-13.087063 8.43102-22.903639l-5.461385 0 0-3.52222 19.48068 0L381.914758 764.582669zM395.705855 800.321638c0 2.550079-0.403183 4.294816-1.208525 5.234211-0.705058 0.87288-2.114151 1.326205-4.228301 1.358951-1.442862 0.033769-3.774977 0-6.996344-0.100284-0.134053-1.376347-0.369414-2.769067-0.704035-4.178159 2.582825 0.26913 4.696975 0.403183 6.341429 0.403183 1.308809 0.033769 2.14792-0.201591 2.517333-0.704035 0.403183-0.436952 0.603751-1.5104 0.603751-3.221368l0-40.822754 3.674693 0L395.705855 800.321638zM693.140035 762.066359l3.523243 0 0 33.67496L693.140035 795.741319 693.140035 762.066359zM471.461213 761.312182l26.777877 0 0 3.52222L471.461213 764.834402 471.461213 761.312182zM446.544731 807.519574l-3.774977 0 0-2.416026-36.846186 0 0 2.416026-3.774977 0 0-47.365774 44.396139 0L446.544731 807.519574zM462.350718 807.41929l-3.523243 0 0-27.256784c-1.778506 5.77247-3.892657 10.411117-6.341429 13.919011-0.469698-1.443885-1.023306-2.920516-1.661849-4.429893 3.724835-5.738701 6.274914-11.745509 7.65126-18.020422l-7.29822 0 0-3.422959 7.65126 0 0-9.865695 3.523243 0 0 9.865695 6.845918 0 0 3.422959-6.845918 0 0 8.909927 2.165316-2.2656c2.14792 1.846044 4.043083 3.624551 5.687536 5.335519l-2.667759 2.769067c-1.610684-1.829671-3.339048-3.675716-5.184069-5.53711L462.352765 807.41929zM465.723535 800.472064c2.684132-4.327562 5.385661-9.697873 8.104585-16.107863l3.774977 1.511423c-2.75167 6.14086-5.486968 11.594059-8.204869 16.358573C468.357526 801.629423 467.132628 801.043069 465.723535 800.472064zM486.662427 800.623513c0 4.195555-1.928932 6.291287-5.78782 6.291287-1.812275 0.033769-4.044106 0.017396-6.694469-0.050142-0.168846-1.208525-0.403183-2.601244-0.704035-4.178159 2.315742 0.26913 4.429893 0.404206 6.342452 0.404206 2.012843 0 3.019777-1.242294 3.019777-3.725858l0-19.782555-13.691837 0 0-3.52222 31.410384 0 0 3.52222-13.893428 0L486.66345 800.623513zM497.484913 802.184055c-2.180666-5.200442-4.681626-10.570753-7.499811-16.10684l3.573385-1.713015c3.187599 6.109138 5.838985 11.460006 7.952112 16.056698L497.484913 802.184055zM525.950222 808.17449l-3.52222 0 3.095501-13.413498 4.680603 0L525.950222 808.17449zM528.359085 589.540004l38.658462-40.693818 41.712007-42.729174c4.069689-3.051499 3.051499-5.086855-2.034333-6.104021-3.051499 0-27.468608-5.086855-51.884694-10.172687l-47.816029-10.17371c-1.017166-55.954383 15.259542-91.562369 42.729174-95.631034 35.606962-4.069689 72.232115 42.72815 85.457324 128.186498 11.1919 72.232115-13.225209 134.290519-46.797839 137.343041C564.983213 652.615575 543.618627 629.216655 528.359085 589.540004zM567.249837 767.20131l-3.52222 2.919493c-2.315742-2.987031-4.581342-5.637394-6.795776-7.953136l3.019777-2.567475C562.703287 762.318092 565.136709 764.851798 567.249837 767.20131zM561.008692 805.858748l-2.316765-3.322675c1.140986-1.074472 1.711991-2.533706 1.711991-4.378727l0-19.027355-6.14086 0 0-3.673669 9.965979 0 0 23.455201c1.87879-1.274016 3.758604-2.599198 5.638417-3.975545 0.100284 1.678222 0.217964 3.136433 0.352017 4.378727C566.594921 801.731754 563.525002 803.912419 561.008692 805.858748zM599.81758 801.429879c0 3.623527-1.861394 5.452175-5.588275 5.484921-1.980097 0.033769-4.51278 0.051165-7.600095 0.051165-0.167822-1.074472-0.419556-2.365884-0.7552-3.875261 2.920516 0.200568 5.302773 0.301875 7.14677 0.301875 1.913583 0 2.870374-0.873903 2.870374-2.618641l0-2.51631L575.756581 798.257629l0 9.110495-3.925403 0 0-25.520233 27.987425 0L599.818603 801.429879zM604.097046 778.777973l-36.69576 0 0-3.171226 16.259312 0 0-3.474125-12.885472 0 0-3.171226 12.885472 0 0-3.373841-14.647605 0 0-3.171226 14.647605 0 0-4.529153 4.076852 0 0 4.529153L603.08909 762.41633l0 3.171226-15.35164 0 0 3.373841 14.043854 0 0 3.171226-14.043854 0 0 3.474125 16.359596 0L604.097046 778.777973zM655.036205 801.982464c-0.335644 1.678222-1.074472 2.852978-2.215458 3.523243-1.00591 0.63752-2.818185 0.956791-5.435803 0.956791l-5.990434 0c-4.697999 0.201591-6.946202-1.99647-6.744611-6.593162l0-14.900362-9.841136 0c-0.26913 5.806239-1.433652 10.268878-3.498684 13.389962-2.483564 3.892657-6.978948 7.046486-13.490246 9.462512-0.670266-1.074472-1.526773-2.28095-2.567475-3.624551 5.973038-2.046612 10.083659-4.680603 12.332886-7.90197 1.846044-2.483564 2.910283-6.258541 3.195785-11.325953l-14.119579 0 0-3.724835 21.99699 0 0-10.721179-12.05557 0c-1.64343 3.320629-3.414773 6.206352-5.309936 8.65717-1.24127-0.972141-2.332115-1.744737-3.270487-2.316765 3.75758-4.864798 6.67605-10.686387 8.758478-17.464767l3.925403 1.106194c-0.754177 2.231831-1.552356 4.328585-2.390443 6.291287l10.343579 0 0-8.556886 4.126994 0L632.786459 766.797104l18.675338 0 0 3.726881-18.675338 0 0 10.721179 22.148439 0 0 3.724835-16.208147 0 0 14.245446c-0.200568 2.582825 0.956791 3.758604 3.473101 3.523243l5.134951 0c2.316765 0 3.590781-0.87288 3.826142-2.618641 0.234337-1.710968 0.417509-4.15974 0.553609-7.349385 1.274016 0.537236 2.684132 1.041726 4.228301 1.5104C655.775033 796.764626 655.473157 799.332101 655.036205 801.982464zM692.08296 782.904966l-3.724835 0 0 19.227923c0 3.154853-1.376347 4.731768-4.126994 4.731768-1.208525 0-2.63399-0.050142-4.279467-0.150426-0.100284-1.173732-0.301875-2.332115-0.603751-3.473101 1.376347 0.234337 2.666736 0.36839 3.875261 0.403183 1.242294 0.032746 1.862417-0.738827 1.862417-2.316765l0-18.422581-5.033643 0 0 5.184069c0 8.356318-1.544169 14.915711-4.630461 19.680225-0.940418-1.207501-1.778506-2.14792-2.51631-2.818185 2.582825-3.926426 3.875261-9.546424 3.875261-16.863063l0-5.184069-4.178159 0 0 17.818831c0 3.287883-1.39272 4.932336-4.177136 4.932336-1.108241 0-2.349511-0.050142-3.724835-0.150426-0.1361-1.173732-0.335644-2.332115-0.604774-3.473101 1.5104 0.234337 2.667759 0.352017 3.474125 0.352017 1.172709 0 1.762133-0.721431 1.762133-2.163269l0-17.316387-4.983501 0 0 5.78782c0 7.752568-1.595334 14.078647-4.78191 18.977213-0.940418-1.208525-1.778506-2.14792-2.517333-2.818185 2.684132-4.195555 4.027733-9.866718 4.027733-17.014512l0-4.932336-4.027733 0 0-3.221368 4.027733 0 0-19.227923 11.526521 0 0 19.227923 4.178159 0 0-19.329231 11.576663 0 0 19.329231 3.724835 0L692.08296 782.904966zM704.567295 801.478997c0 3.624551-1.593288 5.436826-4.78191 5.436826-1.912559 0-4.145413-0.032746-6.694469-0.100284-0.135076-1.376347-0.36839-2.769067-0.704035-4.178159 2.415003 0.234337 4.344958 0.36839 5.788843 0.403183 1.812275 0.033769 2.717901-0.87288 2.717901-2.717901l0-42.030255 3.673669 0L704.567295 801.478997zM715.993532 797.352003c-0.268106-1.375324-0.620124-2.784416-1.057075-4.228301 1.577938 0.403183 3.070942 0.537236 4.481058 0.403183 2.28095-0.234337 3.018753-2.51631 2.214435-6.844895-0.403183-2.348488-1.862417-5.16872-4.378727-8.457626 1.242294-4.293793 2.583848-8.925277 4.02671-13.891382l-6.391571 0 0 43.540655-3.724835 0 0-47.064922 14.193257 0 0 3.524267c-1.609661 5.03262-3.037173 9.445116-4.279467 13.238512 2.583848 3.489474 4.061502 6.492878 4.430916 9.011234 0.939395 6.340405-0.587378 9.915837-4.581342 10.721179C719.685621 797.569968 718.040145 797.587364 715.993532 797.352003zM723.444225 802.788829c2.750647-3.221368 5.250584-7.063883 7.499811-11.528568l3.321652 1.812275c-2.38328 4.396123-4.932336 8.405437-7.65126 12.029988C725.741547 804.433282 724.684472 803.660686 723.444225 802.788829zM755.305887 804.196899c-3.457752-3.991917-6.460132-7.349385-9.010211-10.067286l2.818185-2.465145c2.987031 2.953262 6.090718 6.189979 9.31311 9.714246L755.305887 804.196899zM757.06802 778.828115c-6.779404-3.992941-12.047384-8.908904-15.805988-14.748912-2.919493 4.364401-6.274914 8.1711-10.067286 11.426237l20.638039 0 0 3.524267-8.607028 0 0 6.342452 13.539364 0 0 3.52222-13.539364 0 0 12.483312c0 3.858888-1.812275 5.78782-5.436826 5.78782-1.409093 0-3.288906-0.017396-5.637394-0.050142-0.167822-1.174756-0.404206-2.567475-0.705058-4.177136 1.812275 0.268106 3.540639 0.402159 5.184069 0.402159 1.846044 0 2.768043-0.939395 2.768043-2.818185l0-11.627828L726.714711 788.894378l0-3.52222 12.684904 0 0-6.342452-9.41237 0 0-2.416026c-1.208525 1.00591-2.449795 1.980097-3.724835 2.919493-0.671289-1.107217-1.493004-2.24718-2.466168-3.422959 7.080256-4.797259 12.416797-10.435677 16.007579-16.912182l4.126994 0-0.654916 1.410116c3.558036 6.03853 8.891508 10.737552 16.007579 14.092973C758.410598 776.278035 757.671771 777.654382 757.06802 778.828115zM843.737962 602.765213c-21.364587 5.086855-38.659485-22.381753-50.867528-63.076594 13.225209-12.208043 24.416086-23.39892 35.606962-32.55444 19.330254-16.277732 35.607986-32.555463 38.659485-35.606962s2.034333-5.086855-2.034333-6.104021c-3.051499 0-23.39892-3.051499-44.763506-7.121188-12.209066-3.051499-26.451442-5.086855-41.712007-8.139378 0-48.833195 13.226233-94.613868 41.712007-99.700723 31.537274-6.104021 59.005882 53.92005 67.14526 121.06531C895.623679 552.915875 871.20657 595.644025 843.737962 602.765213z" p-id="6695" data-spm-anchor-id="a313x.7781069.0.i1" class="" fill="#1296db"></path></svg>