<?xml version="1.0" standalone="no"?><!DOCTYPE svg PUBLIC "-//W3C//DTD SVG 1.1//EN" "http://www.w3.org/Graphics/SVG/1.1/DTD/svg11.dtd"><svg t="1532397872584" class="icon" style="" viewBox="0 0 1024 1024" version="1.1" xmlns="http://www.w3.org/2000/svg" p-id="2880" xmlns:xlink="http://www.w3.org/1999/xlink" width="200" height="200"><defs><style type="text/css"></style></defs><path d="M695.816184 328.616669c46.821276 46.821276 76.302016 112.718564 76.302015 183.816184 0 143.932748-116.185452 260.118199-260.118199 260.118199-71.099652 0-136.994908-29.48074-183.816184-76.302015L695.816184 328.616669z" fill="#FFE079" p-id="2881"></path><path d="M695.816184 328.616669L328.181784 696.251069l-8.671284-8.671284c-6.935808-6.935808-12.138172-13.873648-19.076012-22.5429-1.733444-3.46892-3.46892-5.202364-5.202364-8.671284-1.733444-3.46892-5.202364-6.935808-6.935808-10.404728-5.202364-6.935808-8.671284-15.607092-12.138172-22.5429-31.214184-67.630732-32.947628-145.666192-1.733444-216.765844 1.733444-3.46892 3.46892-6.935808 5.202364-8.671284 1.733444-3.46892 3.46892-6.935808 5.202364-8.671284 1.733444-3.46892 3.46892-6.935808 6.935808-10.404728 1.733444-3.46892 5.202364-6.935808 6.935808-10.404728 1.733444-1.733444 1.733444-3.46892 3.46892-5.202364 12.138172 17.340536 32.947628 29.48074 55.49256 29.48074 38.149992 0 69.364176-31.214184 69.364176-69.364176 0-17.340536-6.935808-34.683104-19.076012-46.821276 32.947628-13.873648 67.630732-22.5429 105.780724-22.542899 69.36824-1.735476 135.263496 27.745264 182.084772 74.566539" fill="#AAB1BA" p-id="2882"></path><path d="M406.217244 274.859586c12.138172 12.138172 19.076012 29.48074 19.076012 46.821275 0 38.149992-31.214184 69.364176-69.364176 69.364176-22.5429 0-43.352356-12.138172-55.49256-29.48074 26.01182-38.149992 62.428368-67.630732 105.780724-86.704711M529.340536 321.680861c19.076012 0 34.683104 15.607092 34.683104 34.683104s-15.607092 34.683104-34.683104 34.683104-34.683104-15.607092-34.683104-34.683104 15.607092-34.683104 34.683104-34.683104M373.269616 460.409213c29.48074 0 52.02364 22.5429 52.02364 52.02364 0 29.48074-22.5429 52.02364-52.02364 52.02364-29.48074 0-52.02364-22.5429-52.02364-52.02364 0-29.478708 22.5429-52.02364 52.02364-52.02364" fill="#AAB1BA" p-id="2883"></path><path d="M303.90544 1024h-3.46892c-3.46892-1.733444-5.202364-5.202364-5.202364-8.671284v-3.46892l29.48074-71.099652c1.733444-5.202364 6.935808-6.935808 12.138172-5.202364 3.46892 1.733444 5.202364 5.202364 5.202364 8.671284v3.46892l-29.48074 71.099652c-1.733444 3.466888-5.200332 5.202364-8.669252 5.202364z m-294.801303 0c-1.733444 0-5.202364 0-6.935808-1.733444-1.733444-1.733444-1.733444-3.46892-1.733444-6.935808s0-5.202364 1.733444-6.935808l312.141839-312.141839C227.603425 604.341961 217.198697 462.144689 290.031792 356.361933c1.733444-3.46892 5.202364-3.46892 8.671284-3.46892 1.733444 0 5.202364 1.733444 5.202364 3.46892 12.138172 15.607092 29.48074 24.278376 48.55472 24.278376 32.947628 0 60.694924-27.745264 60.694924-60.694924 0-13.873648-3.46892-26.01182-12.138172-36.416548-19.076012 8.671284-36.416548 20.809456-53.757084 32.947628-3.46892 3.46892-8.671284 1.733444-12.138171-1.733444s-1.733444-8.671284 1.733443-12.138172c19.076012-15.607092 39.885468-29.48074 62.428368-38.149991h1.733444C477.316896 231.505198 570.959448 236.707562 643.792544 278.326473c3.46892 1.733444 5.202364 6.935808 3.46892 12.138172-1.733444 3.46892-6.935808 5.202364-12.138172 3.46892-65.897288-38.149992-147.399636-45.087832-218.499288-17.340536 8.671284 12.138172 13.873648 27.745264 13.873648 43.352356 0 43.352356-34.683104 78.03546-78.03546 78.03546-20.809456 0-41.618912-8.671284-55.492559-22.5429-62.428368 97.111472-50.290196 223.701652 27.745263 306.939476L1004.491135 2.601182c3.46892-3.46892 8.671284-3.46892 12.138172 0 1.733444 1.733444 1.733444 3.46892 1.733444 6.935808s0 5.202364-1.733444 6.935808l-312.141839 312.141839c46.821276 50.290196 72.833096 114.452008 72.833095 183.816184 0 147.399636-121.387816 268.789484-268.789483 268.789483-48.55472 0-95.375996-12.138172-136.994908-36.416548-3.46892-1.733444-5.202364-6.935808-3.46892-12.138172 1.733444-3.46892 6.935808-5.202364 12.138172-3.46892 38.149992 22.5429 83.237824 34.683104 128.325656 34.683104 138.730384 0 251.446915-112.718564 251.446915-251.446915 0-64.161812-24.278376-124.856736-67.630731-171.678012L12.573057 1020.53108c1.733444 3.46892-1.733444 3.46892-3.46892 3.46892z m710.990423-1.735476c-3.46892 0-6.935808-1.733444-8.671284-5.202364l-29.48074-69.364176v-3.46892c0-3.46892 1.733444-6.935808 5.202364-8.671284 5.202364-1.733444 8.671284 0 12.138171 5.202364l29.48074 69.364176v3.46892c0 3.46892-1.733444 6.935808-5.202364 8.671284h-3.466887z m-208.09456-32.947628c-5.202364 0-8.671284-3.46892-8.671284-8.671284v-138.730384c0-5.202364 3.46892-8.671284 8.671284-8.671284s8.671284 3.46892 8.671284 8.671284v138.730384c0 5.202364-3.46892 8.671284-8.671284 8.671284z m152.602-100.57836c-3.46892 0-6.935808-1.733444-8.671284-5.202364l-26.01182-64.161812v-3.46892c0-3.46892 1.733444-6.935808 5.202364-8.671284 5.202364-1.733444 8.671284 0 12.138172 5.202364l26.011819 64.161812v3.46892c0 3.46892-1.733444 6.935808-5.202363 8.671284h-3.466888z m-305.206032 0h-3.46892c-3.46892-1.733444-5.202364-5.202364-5.202364-8.671284v-3.46892l26.01182-64.161812c1.733444-5.202364 6.935808-6.935808 12.138172-5.202364 3.46892 1.733444 5.202364 5.202364 5.202364 8.671284v3.46892l-26.01182 64.161812c-1.731412 3.466888-5.200332 5.202364-8.669252 5.202364z m489.022215-34.683104c-1.733444 0-5.202364 0-6.935808-1.733444l-98.844916-98.844915c-1.733444-1.733444-1.733444-3.46892-1.733443-6.935808 0-3.466888 0-5.202364 1.733443-6.935808 3.46892-3.46892 8.671284-3.46892 12.138172 0l98.844916 98.844915c1.733444 1.733444 1.733444 3.46892 1.733444 6.935808 0 3.466888 0 5.202364-1.733444 6.935808s-1.733444 1.733444-5.202364 1.733444z m166.47768-124.856735h-3.46892L940.327291 699.717957c-3.46892-1.733444-5.202364-5.202364-5.202364-8.671284v-3.468921c1.733444-5.202364 6.935808-6.935808 12.138172-5.202364l71.099652 29.48074c3.46892 1.733444 5.202364 5.202364 5.202364 8.671285v3.46892c-1.733444 3.46892-5.202364 5.202364-8.669252 5.202364z m-135.263496-55.49256h-3.46892l-64.161812-26.01182c-3.46892-1.733444-5.202364-5.202364-5.202364-8.671284v-3.46892c1.733444-5.202364 6.935808-6.935808 12.138172-5.202364l64.161812 26.01182c3.46892 1.733444 5.202364 5.202364 5.202364 8.671284v3.46892c-1.731412 3.46892-5.200332 5.202364-8.669252 5.202364z m-801.164054-65.895256c-5.202364 0-8.671284-3.46892-8.671284-8.671284v-26.01182h-26.01182c-5.202364 0-8.671284-3.46892-8.671284-8.671284 0-5.202364 3.46892-8.671284 8.671284-8.671284h26.01182v-26.01182c0-5.202364 3.46892-8.671284 8.671284-8.671284 5.202364 0 8.671284 3.46892 8.671284 8.671284v26.01182h26.01182c5.202364 0 8.671284 3.46892 8.671284 8.671284 0 5.202364-3.46892 8.671284-8.671284 8.671284h-26.01182v26.01182c0 5.202364-3.46892 8.671284-8.671284 8.671284z m615.614427-27.747296h-3.46892c-5.202364-1.733444-6.935808-6.935808-5.202364-10.404728 10.404728-31.214184 12.138172-62.428368 5.202364-93.642552-1.733444-5.202364 1.733444-8.671284 6.935808-10.404728 5.202364-1.733444 8.671284 1.733444 10.404727 6.935808 6.935808 34.683104 5.202364 69.364176-5.202364 104.04728-1.733444 1.735476-5.202364 3.46892-8.669251 3.46892z m-338.15366-10.404728h-3.46892c-24.278376-8.671284-39.885468-31.214184-39.885468-57.226004 0-32.947628 27.745264-60.694924 60.694924-60.694924 26.01182 0 48.55472 15.607092 57.226004 39.885468 1.733444 5.202364 0 8.671284-5.202364 10.404728-5.202364 1.733444-8.671284 0-10.404728-5.202364-6.935808-17.340536-22.5429-29.48074-41.618912-29.48074-24.278376 0-43.352356 19.076012-43.352356 43.352356 0 19.076012 12.138172 34.683104 29.48074 41.618912 5.202364 1.733444 6.935808 6.935808 5.202364 10.404728-1.735476 5.204396-5.204396 6.93784-8.671284 6.93784z m624.283679-48.55472H841.482375c-5.202364 0-8.671284-3.46892-8.671284-8.671284 0-5.202364 3.46892-8.671284 8.671284-8.671284h138.730384c5.202364 0 8.671284 3.46892 8.671284 8.671284-0.002032 5.202364-3.46892 8.671284-8.671284 8.671284zM529.340536 399.716321c-24.278376 0-43.352356-19.076012-43.352356-43.352356 0-24.278376 19.076012-43.352356 43.352356-43.352355 24.278376 0 43.352356 19.076012 43.352356 43.352355 0 24.276344-19.07398 43.352356-43.352356 43.352356z m0-69.366208c-13.873648 0-26.01182 12.138172-26.01182 26.01182 0 13.873648 12.138172 26.01182 26.01182 26.01182 13.873648 0 26.01182-12.138172 26.01182-26.01182 0-13.871616-12.138172-26.01182-26.01182-26.01182z m287.865495 64.163844c-3.46892 0-6.935808-1.733444-8.671284-5.202364v-3.46892c0-3.46892 1.733444-6.935808 5.202364-8.671284L877.898923 351.159569c5.202364-1.733444 8.671284 0 12.138172 5.202364v3.46892c0 3.46892-1.733444 6.935808-5.202364 8.671284l-64.161812 26.01182h-3.466888z m126.59018-52.02364c-3.46892 0-6.935808-1.733444-8.671284-5.202364v-3.46892c0-3.46892 1.733444-6.935808 5.202364-8.671284l71.099652-29.48074c5.202364-1.733444 8.671284 0 12.138172 5.202364v3.46892c0 3.46892-1.733444 6.935808-5.202364 8.671284l-71.099652 29.48074h-3.466888zM78.468313 260.985938c-5.202364 0-8.671284-3.46892-8.671284-8.671285V191.621762H9.104137c-5.202364 0-8.671284-3.46892-8.671284-8.671284 0-5.202364 3.46892-8.671284 8.671284-8.671284h60.694924V113.586302c0-5.202364 3.46892-8.671284 8.671284-8.671284 5.202364 0 8.671284 3.46892 8.671284 8.671284V174.279194h60.694924c5.202364 0 8.671284 3.46892 8.671284 8.671284 0 5.202364-3.46892 8.671284-8.671284 8.671284H87.139597v60.694924c0 5.200332-3.46892 8.669252-8.671284 8.669252z m312.141839-173.411456c-5.202364 0-8.671284-3.46892-8.671284-8.671284v-26.01182h-26.01182c-5.202364 0-8.671284-3.46892-8.671284-8.671284s3.46892-8.671284 8.671284-8.671284h26.01182v-26.01182c0-5.202364 3.46892-8.671284 8.671284-8.671284s8.671284 3.46892 8.671284 8.671284v26.01182h26.01182c5.202364 0 8.671284 3.46892 8.671284 8.671284s-3.46892 8.671284-8.671284 8.671284h-26.01182v26.01182c0 5.202364-3.466888 8.671284-8.671284 8.671284z" fill="#51565F" p-id="2884"></path></svg>