<?xml version="1.0" standalone="no"?><!DOCTYPE svg PUBLIC "-//W3C//DTD SVG 1.1//EN" "http://www.w3.org/Graphics/SVG/1.1/DTD/svg11.dtd"><svg t="1532397907735" class="icon" style="" viewBox="0 0 1024 1024" version="1.1" xmlns="http://www.w3.org/2000/svg" p-id="3341" xmlns:xlink="http://www.w3.org/1999/xlink" width="200" height="200"><defs><style type="text/css"></style></defs><path d="M112.814955 459.930307V164.881597c0-48.595804 38.182272-86.780109 86.78011-86.780109S286.37314 116.28376 286.37314 164.881597v399.186062H112.814955v-104.137352z" fill="#ECF4F7" p-id="3342"></path><path d="M286.37314 654.317589c62.48119 31.240595 104.135317 95.456696 104.135317 170.088363 0 105.870228-85.043165 190.915427-190.915426 190.915427S8.679638 930.27618 8.679638 824.403918c0-74.629633 41.654127-138.847768 104.135317-170.088363v-90.24993H286.37314v90.251964z" fill="#80D6FA" p-id="3343"></path><path d="M702.91441 251.659673l34.71245 34.71245 34.710417 34.71245-34.710417 34.710417L702.91441 390.50744l-34.712451-34.71245-34.710416-34.710417 34.710416-34.71245z" fill="#ECF4F7" p-id="3344"></path><path d="M199.593031 1023.997966C90.250947 1023.997966 0.001017 933.746002 0.001017 824.403918c0-72.894722 39.919216-140.582679 104.135317-175.295129v-85.043164c0-5.206766 3.471855-8.678621 8.678621-8.678621h104.135318c5.206766 0 8.678621 3.471855 8.678621 8.678621s-3.471855 8.678621-8.678621 8.678621H121.491543v81.573343c0 3.471855-1.734911 6.941677-5.206766 6.941677-60.74628 31.240595-98.928552 93.721786-98.928552 161.409742 0 100.663462 81.573343 182.236806 182.236806 182.236805s182.236806-81.573343 182.236805-182.236805c0-69.422867-38.182272-130.169147-98.928551-161.409742-3.471855-1.734911-5.206766-5.206766-5.206766-6.941677V164.881597c0-43.389038-34.71245-78.101488-78.101488-78.101488s-78.101488 34.71245-78.101488 78.101488v78.101488h26.033829c5.206766 0 8.678621 3.471855 8.678621 8.678621 0 5.206766-3.471855 8.678621-8.678621 8.678621h-26.033829v86.78011h26.033829c5.206766 0 8.678621 3.471855 8.678621 8.678621 0 5.206766-3.471855 8.678621-8.678621 8.678621h-26.033829v86.780109h26.033829c5.206766 0 8.678621 3.471855 8.678621 8.678621s-3.471855 8.678621-8.678621 8.678621h-26.033829v26.03383c0 5.206766-3.471855 8.678621-8.678621 8.678621-5.206766 0-8.678621-3.471855-8.678622-8.678621V164.881597c0-52.067659 43.389038-95.456696 95.456697-95.456696s95.456696 43.389038 95.456696 95.456696v484.229226c64.216101 34.71245 104.135317 102.400407 104.135318 175.295129 0.004068 109.340049-90.247897 199.592014-199.58998 199.592014z m0-104.135317c-5.206766 0-8.678621-3.471855-8.678621-8.678621 0-5.206766 3.471855-8.678621 8.678621-8.678621 43.389038 0 78.101488-34.71245 78.101488-78.101489 0-5.206766 3.471855-8.678621 8.678621-8.678621 5.206766 0 8.678621 3.471855 8.678621 8.678621 0 52.067659-43.391072 95.45873-95.45873 95.458731zM702.91441 642.167113c-5.206766 0-8.678621-3.471855-8.678621-8.678621v-83.308254l-36.447362 36.447361c-3.471855 3.471855-8.678621 3.471855-12.148442 0-3.471855-3.471855-3.471855-8.678621 0-12.148442l50.332748-50.332748v-79.836399L624.812922 515.469821c-3.471855 3.471855-8.678621 3.471855-12.148443 0-3.471855-3.471855-3.471855-8.678621 0-12.148442l85.043165-85.043165V390.50744l-26.03383-26.033829-130.169146 130.169147v31.240595c0 5.206766-3.471855 8.678621-8.678621 8.678621-5.206766 0-8.678621-3.471855-8.678622-8.678621v-26.033829h-26.033829c-5.206766 0-8.678621-3.471855-8.678621-8.678621s3.471855-8.678621 8.678621-8.678621h31.240595l130.169147-130.169147-26.033829-26.03383h-27.76874L520.677604 411.334504c-3.471855 3.471855-8.678621 3.471855-12.148442 0-3.471855-3.471855-3.471855-8.678621 0-12.148443l71.159811-71.159811H499.850541l-50.332748 50.332748c-3.471855 3.471855-8.678621 3.471855-12.148443 0-3.471855-3.471855-3.471855-8.678621 0-12.148442l36.447361-36.447362H390.508457c-5.206766 0-8.678621-3.471855-8.678621-8.678621 0-5.206766 3.471855-8.678621 8.678621-8.678621h83.308254l-36.447361-36.447361c-3.471855-3.471855-3.471855-8.678621 0-12.148442 3.471855-3.471855 8.678621-3.471855 12.148443 0l50.332748 50.332748h79.836398l-71.159811-71.159812c-3.471855-3.471855-3.471855-8.678621 0-12.148442 3.471855-3.471855 8.678621-3.471855 12.148442 0l85.043165 85.043165h27.76874l26.033829-26.03383-130.169147-130.169147h-31.240595c-5.206766 0-8.678621-3.471855-8.678621-8.678621s3.471855-8.678621 8.678621-8.678621h26.03383V112.813939c0-5.206766 3.471855-8.678621 8.678621-8.678622 5.206766 0 8.678621 3.471855 8.678621 8.678622v31.240595l130.169147 130.169147 26.033829-26.03383v-27.76874L612.664479 135.375913c-3.471855-3.471855-3.471855-8.678621 0-12.148443 3.471855-3.471855 8.678621-3.471855 12.148443 0l71.159811 71.159812V114.548849L645.639985 64.216101c-3.471855-3.471855-3.471855-8.678621 0-12.148442 3.471855-3.471855 8.678621-3.471855 12.148442 0l36.447362 36.447361V8.678621c0-5.206766 3.471855-8.678621 8.678621-8.678621s8.678621 3.471855 8.678621 8.678621v83.308254l36.447361-36.447361c3.471855-3.471855 8.678621-3.471855 12.148442 0 3.471855 3.471855 3.471855 8.678621 0 12.148442l-50.332748 50.332748V197.857103L781.015898 126.697292c3.471855-3.471855 8.678621-3.471855 12.148442 0 3.471855 3.471855 3.471855 8.678621 0 12.148442L708.121176 223.890932v27.768741l26.033829 26.033829 130.169147-130.169147V112.813939c0-5.206766 3.471855-8.678621 8.678621-8.678622s8.678621 3.471855 8.678621 8.678622v26.033829h26.033829c5.206766 0 8.678621 3.471855 8.678621 8.678621 0 5.206766-3.471855 8.678621-8.678621 8.678621h-31.240595l-130.169147 130.169147 26.03383 26.033829h27.76874l85.043164-85.043164c3.471855-3.471855 8.678621-3.471855 12.148443 0 3.471855 3.471855 3.471855 8.678621 0 12.148442l-71.159812 71.159812h79.836399L956.311027 260.338294c3.471855-3.471855 8.678621-3.471855 12.148442 0 3.471855 3.471855 3.471855 8.678621 0 12.148442l-36.447361 36.447361h83.308254c5.206766 0 8.678621 3.471855 8.678621 8.678621 0 5.206766-3.471855 8.678621-8.678621 8.678621h-83.308254l36.447361 36.447361c3.471855 3.471855 3.471855 8.678621 0 12.148443-3.471855 3.471855-8.678621 3.471855-12.148442 0l-50.332748-50.332748h-79.836399l71.159811 71.159811c3.471855 3.471855 3.471855 8.678621 0 12.148443s-8.678621 3.471855-12.148442 0l-85.043165-85.043165h-27.76874l-26.033829 26.033829 130.169147 130.169147h31.240595c5.206766 0 8.678621 3.471855 8.678621 8.678621 0 5.206766-3.471855 8.678621-8.678621 8.678621h-26.033829v26.03383c0 5.206766-3.471855 8.678621-8.678621 8.678621s-8.678621-3.471855-8.678621-8.678621v-31.240595l-130.169147-130.169147-26.03383 26.033829v27.76874l85.043165 85.043165c3.471855 3.471855 3.471855 8.678621 0 12.148442s-8.678621 3.471855-12.148442 0l-71.159812-71.159811v79.836398l50.332748 50.332748c3.471855 3.471855 3.471855 8.678621 0 12.148443-3.471855 3.471855-8.678621 3.471855-12.148442 0l-36.447361-36.447361v83.308254c-0.002034 8.680655-3.473889 12.150476-8.680655 12.150476z m-57.274425-321.08254l57.274425 57.274425 57.274424-57.274425-57.274424-57.274424-57.274425 57.274424z" fill="#51565F" p-id="3345"></path></svg>