<?xml version="1.0" standalone="no"?><!DOCTYPE svg PUBLIC "-//W3C//DTD SVG 1.1//EN" "http://www.w3.org/Graphics/SVG/1.1/DTD/svg11.dtd"><svg t="1532348969431" class="icon" style="" viewBox="0 0 1024 1024" version="1.1" xmlns="http://www.w3.org/2000/svg" p-id="3599" xmlns:xlink="http://www.w3.org/1999/xlink" width="200" height="200"><defs><style type="text/css"></style></defs><path d="M512 0c282.772 0 512 229.228 512 512S794.772 1024 512 1024 0 794.772 0 512 229.228 0 512 0z" fill="#FFEBB1" p-id="3600"></path><path d="M935.93 294.358c5.318 0 10.33 0.862 14.766 2.382 4.804-3.198 11.388-5.172 18.644-5.172 1.722 0 3.41 0.11 5.044 0.324a508.452 508.452 0 0 1 22.242 54.558c-3.852 2.904-9.424 4.728-15.63 4.728-5.842 0-11.128-1.618-14.946-4.238-3.81 2.62-9.098 4.238-14.944 4.238-5.552 0-10.61-1.466-14.372-3.858-3.84 2.86-9.368 4.654-15.522 4.654-5.758 0-10.972-1.566-14.76-4.114-1.74 0.262-3.546 0.398-5.398 0.398-13.844 0-25.058-7.628-25.058-17.036 0-9.414 11.216-17.044 25.058-17.044 0.752 0 1.502 0.028 2.24 0.074 1.776-11.184 15.708-19.894 32.636-19.894zM549.556 185.756c6.144 0 11.936 0.994 17.066 2.754 5.552-3.698 13.156-5.978 21.544-5.978 14.526 0 26.704 6.834 29.966 16.034 7.26 1.484 13.084 5.208 15.74 9.996 0.87-0.068 1.76-0.096 2.654-0.096 13.418 0 24.306 7.4 24.306 16.53 0 9.126-10.89 16.526-24.306 16.526-4.184 0-8.118-0.714-11.55-1.98-2.954 6.868-12.282 11.884-23.342 11.884-6.754 0-12.86-1.872-17.266-4.902-4.408 3.028-10.518 4.902-17.276 4.902-6.414 0-12.26-1.694-16.608-4.456-4.438 3.302-10.83 5.378-17.936 5.378-6.652 0-12.676-1.814-17.056-4.754a42.13 42.13 0 0 1-6.24 0.458c-15.998 0-28.958-8.814-28.958-19.69 0-10.876 12.962-19.69 28.958-19.69 0.87 0 1.736 0.028 2.588 0.082 2.056-12.934 18.16-22.998 37.716-22.998z" fill="#FFB54C" p-id="3601"></path><path d="M526.874 82.654s11.582-2.482 21.276-0.628c9.716 1.862 19.836 9.918 30.79 10.542 10.948 0.614 8.672-3.518 8.672-3.518s-7.024 1.04-8.888-4.952c-1.852-5.992 5.79-10.752 17.56-19.002 11.784-8.264 14.056-16.53 11.784-21.702 0 0-2.07 3.308-11.784 8.476-9.708 5.168-16.726 14.674-24.368 21.476-7.646 6.826-8.062 7.234-15.292 5.792-7.224-1.45-22.72-3.716-29.75 3.516zM387.44 118.246s11.582-2.482 21.274-0.628c9.716 1.862 19.836 9.918 30.79 10.542 10.95 0.614 8.672-3.518 8.672-3.518s-7.024 1.04-8.888-4.952c-1.85-5.992 5.79-10.752 17.56-19.002 11.784-8.264 14.056-16.53 11.784-21.702 0 0-2.07 3.308-11.784 8.476-9.708 5.168-16.726 14.674-24.368 21.476-7.646 6.826-8.062 7.234-15.292 5.792-7.222-1.45-22.72-3.716-29.748 3.516z" fill="" p-id="3602"></path><path d="M0.156 524.09h1023.688C1017.422 801.278 790.732 1024 512 1024 233.268 1024 6.578 801.278 0.156 524.09z" fill="#4CCFDF" p-id="3603"></path><path d="M1013.532 615.486c-147.604-28.746-468.51-72.672-657.188 40.352-250.91 150.306 59.396 208.488 167.276 237.58 107.88 29.09 61.816 19.396 187.876 29.09a965.656 965.656 0 0 0 103.212 2.422c100.358-73.694 172.884-183.062 198.824-309.444z" fill="#FFDF81" p-id="3604"></path><path d="M9.964 612.898c120.746 3.876 428.002 27.35 556.076 164.15 94.386 100.82 12.456 187.066-78.684 246.352-237.184-11.242-432.092-183.86-477.392-410.502z" fill="#FFD34E" p-id="3605"></path><path d="M295.92 976.264C486.674 724.446 823.18 730.2 967.458 746.098 882.466 911.132 710.418 1024 512 1024c-77.218 0-150.422-17.13-216.08-47.736z" fill="#FFC928" p-id="3606"></path><path d="M164.788 553.258c49.202 0 89.09 0.948 89.09 2.12s-39.888 2.12-89.09 2.12c-49.204 0-89.092-0.948-89.092-2.12s39.888-2.12 89.092-2.12z m855.096 23.936c-0.262 2.026-0.568 4.036-0.846 6.056-39.068-0.06-70.304-1.392-70.304-3.028 0-1.644 31.684-2.984 71.15-3.028z m-94.79-36.97c47.53 0 86.058 1.626 86.058 3.632 0 2.008-38.528 3.634-86.058 3.634-47.53 0-86.058-1.626-86.058-3.634 0-2.004 38.53-3.632 86.058-3.632z m-239.7 27.272c78.49 0 142.12 1.086 142.12 2.424 0 1.338-63.63 2.422-142.12 2.422s-142.12-1.086-142.12-2.422c0.002-1.338 63.63-2.424 142.12-2.424z m-265.152 22.426c39.834 0 72.122 1.764 72.122 3.934 0 2.172-32.288 3.936-72.122 3.936s-72.122-1.764-72.122-3.936c-0.002-2.17 32.288-3.934 72.122-3.934z m10.002-47.274c59.08 0 106.972 2.172 106.972 4.848 0 2.676-47.892 4.848-106.972 4.848s-106.972-2.172-106.972-4.848c0-2.676 47.892-4.848 106.972-4.848zM166.602 578.404c77.154 0 139.696 1.902 139.696 4.244s-62.544 4.242-139.696 4.242-139.696-1.9-139.696-4.242 62.542-4.244 139.696-4.244z" fill="#B1E9F1" p-id="3607"></path><path d="M142.912 237.606h90.508c17.936-35.458 52.862-83.95 69.608-83.95h125.75c16.746 0 51.668 48.492 69.604 83.95H881.1c43.002 0 78.184 35.18 78.184 78.184v398.788c0 43.004-35.18 78.184-78.184 78.184H142.912c-43.004 0-78.184-35.178-78.184-78.184V315.79c0-43.004 35.18-78.184 78.184-78.184z" fill="#747474" p-id="3608"></path><path d="M142.912 237.606h90.508c17.936-35.458 52.862-83.95 69.608-83.95h125.75c16.746 0 51.668 48.492 69.604 83.95H881.1c43.002 0 78.184 35.18 78.184 78.184v13.538H64.728v-13.538c0-43.004 35.18-78.184 78.184-78.184z" fill="#606060" p-id="3609"></path><path d="M308.012 191.386h113.816c18.494 0 33.626 15.136 33.626 33.63v35.084c0 18.494-15.132 33.63-33.626 33.63h-113.816c-18.494 0-33.626-15.136-33.626-33.63v-35.084c-0.002-18.494 15.13-33.63 33.626-33.63z" fill="#424242" p-id="3610"></path><path d="M306.136 213.67h117.568c5.204 0 9.47 4.26 9.47 9.468v38.84c0 5.208-4.266 9.468-9.47 9.468h-117.568a9.496 9.496 0 0 1-9.468-9.468v-38.84a9.496 9.496 0 0 1 9.468-9.468z" fill="#999999" p-id="3611"></path><path d="M317.98 234.98h93.878v15.152H317.98z" fill="#FFFFFF" p-id="3612"></path><path d="M173.454 370.104h567.882v392.728H173.454z" fill="#424242" p-id="3613"></path><path d="M185.82 382.47h543.156v368.002H185.82z" fill="#F9F9F9" p-id="3614"></path><path d="M118 579.642c17.404 0 31.514 14.11 31.514 31.514S135.404 642.67 118 642.67s-31.514-14.11-31.514-31.514c-0.002-17.404 14.108-31.514 31.514-31.514z m0-178.75c17.404 0 31.514 14.11 31.514 31.514S135.404 463.92 118 463.92s-31.514-14.11-31.514-31.514c-0.002-17.404 14.108-31.514 31.514-31.514z m0 89.374c17.404 0 31.514 14.112 31.514 31.514 0 17.404-14.11 31.514-31.514 31.514s-31.514-14.11-31.514-31.514c-0.002-17.402 14.108-31.514 31.514-31.514z m0 178.752c17.404 0 31.514 14.11 31.514 31.514S135.404 732.046 118 732.046s-31.514-14.11-31.514-31.514c-0.002-17.404 14.108-31.514 31.514-31.514zM842.174 649.808c11.714 0 21.212 9.496 21.212 21.212 0 11.714-9.496 21.212-21.212 21.212-11.714 0-21.21-9.498-21.21-21.212 0-11.716 9.496-21.212 21.21-21.212z" fill="#424242" p-id="3615"></path><path d="M842.174 606.428c35.674 0 64.592 28.916 64.592 64.592 0 35.674-28.916 64.59-64.592 64.59-35.674 0-64.59-28.916-64.59-64.59 0-35.676 28.916-64.592 64.59-64.592z m0 17.01c26.278 0 47.58 21.302 47.58 47.58s-21.302 47.58-47.58 47.58-47.58-21.304-47.58-47.58c0-26.278 21.302-47.58 47.58-47.58z" fill="#424242" p-id="3616"></path><path d="M899.45 554.052c11.714 0 21.212 9.496 21.212 21.212 0 11.714-9.496 21.212-21.212 21.212-11.714 0-21.212-9.498-21.212-21.212 0-11.716 9.496-21.212 21.212-21.212z" fill="#FF3C00" p-id="3617"></path><path d="M862.48 389.368c36 2.406 63.632 16.52 63.632 33.576s-27.634 31.17-63.632 33.576v-67.152z m-21.822 67.152c-36-2.4-63.638-16.52-63.638-33.576s27.638-31.176 63.638-33.576v67.152zM704.76 220.386h125.156v17.22H704.76z" fill="#424242" p-id="3618"></path><path d="M638.372 265.514h231.518c9.002 0 16.364 7.362 16.364 16.364 0 9.004-7.362 16.364-16.364 16.364H638.372c-9.002 0-16.364-7.362-16.364-16.364s7.364-16.364 16.364-16.364z" fill="#EDEDED" p-id="3619"></path><path d="M660.346 265.514h30.294v32.728h-30.294v-32.728z m157.282 0h30.296v32.728h-30.296v-32.728z m-52.428 0h30.296v32.728H765.2v-32.728z m-52.428 0h30.296v32.728h-30.296v-32.728z" fill="#BBBBBB" p-id="3620"></path><path d="M185.82 382.24h543.156v368.232H185.82z" fill="#FFEBB1" p-id="3621"></path><path d="M460.676 382.492c4.65 0 9.034 0.858 12.92 2.374a23.648 23.648 0 0 1 4.406-2.626h23.8c5.328 2.452 9.286 6.502 10.78 11.298 5.494 1.278 9.9 4.49 11.912 8.616 0.66-0.06 1.334-0.082 2.008-0.082 10.156 0 18.398 6.382 18.398 14.252 0 7.87-8.242 14.248-18.398 14.248-3.166 0-6.144-0.614-8.742-1.704-2.236 5.918-9.294 10.242-17.664 10.242-5.108 0-9.732-1.612-13.066-4.224-3.336 2.612-7.962 4.224-13.074 4.224-4.856 0-9.282-1.462-12.57-3.838-3.358 2.844-8.196 4.636-13.574 4.636-5.034 0-9.592-1.566-12.91-4.1-1.52 0.262-3.106 0.394-4.72 0.394-12.108 0-21.916-7.602-21.916-16.978s9.808-16.978 21.916-16.978c0.656 0 1.312 0.022 1.956 0.072 1.55-11.144 13.742-19.826 28.538-19.826z" fill="#FFB54C" p-id="3622"></path><path d="M488.544 487.192s8.764-2.144 16.104-0.54c7.354 1.604 15.014 8.548 23.306 9.088 8.284 0.528 6.56-3.038 6.56-3.038s-5.316 0.898-6.726-4.27c-1.402-5.162 4.384-9.268 13.29-16.382 8.914-7.128 10.638-14.252 8.914-18.714 0 0-1.566 2.854-8.914 7.306-7.348 4.458-12.658 12.654-18.444 18.522-5.786 5.882-6.102 6.236-11.572 4.994-5.472-1.25-17.2-3.206-22.518 3.034z" fill="" p-id="3623"></path><path d="M421.708 676.466l88.894-123.172 21.348 33.15 104.366-143.53 85.664 132.994 0.128 0.202-85.792-133.196v144.272l36.902 16.122-73.79 32.238 58.53 23.566-24.454 17.354H421.708z m300.272-100.558l6.996 10.944-6.996-10.944z m6.996 10.94l-6.868-10.738 6.868 10.738z" fill="#FFDF81" p-id="3624"></path><path d="M636.316 442.914l85.664 132.994 6.996 10.944v89.614h-95.472l24.454-17.354-58.53-23.566 73.79-32.238-36.902-16.12v-16.778z" fill="#F98B00" p-id="3625"></path><path d="M278.016 388.994c28.44 0 51.494 26.264 51.494 58.662s-23.052 58.662-51.494 58.662-51.492-26.264-51.492-58.662 23.052-58.662 51.492-58.662z" fill="#FC9038" p-id="3626"></path><path d="M352.468 490.44l45.27-64.796 94.572 152.812-70.602 98.01-203.586-2.25z" fill="#FFDF81" p-id="3627"></path><path d="M397.738 425.644l94.572 152.812-70.602 98.01c-16.048-12.614-18.984-43.05-30.716-58.466l23.574-17.412-45.516-19.072 57.372-26.086-28.684-13.048v-116.738z" fill="#F98B00" p-id="3628"></path><path d="M185.82 455.354c3.014 0.544 5.892 1.36 8.59 2.414 5.638-4.278 13.376-6.928 21.902-6.928 14.77 0 27.154 7.922 30.466 18.572 7.39 1.718 13.308 6.038 16.006 11.586a28.72 28.72 0 0 1 2.698-0.114c21.138 0-1.334 40.338-11.746 35.994-2.996 7.962-12.488 13.768-23.73 13.768-6.868 0-13.074-2.162-17.56-5.672-4.476 3.51-10.692 5.672-17.56 5.672-3.198 0-6.258-0.472-9.066-1.328v-73.964z" fill="#FFB54C" p-id="3629"></path><path d="M185.82 674.216h543.156v76.256H185.82z" fill="#4CCFDF" p-id="3630"></path><path d="M728.976 737.47c-98.634-15.178-230.982-23.434-338.192 13h338.192v-13z" fill="#FFDF81" p-id="3631"></path><path d="M218.118 674.216h510.858v3.378H218.118z" fill="#F98B00" p-id="3632"></path><path d="M562.926 698.108l0.146-6.204v-0.01l8.662 0.27 10.114 0.308c-1.9-0.926-3.852-2.438-5.8-4.468l15.944 0.482a117.542 117.542 0 0 0-1.38-8.206l-0.114-0.536-0.054-0.22-0.06-0.312-0.118-0.536-0.05-0.246-0.068-0.28-0.114-0.532-0.064-0.28-0.06-0.246-0.128-0.522-0.074-0.308-0.054-0.224-0.134-0.528-0.078-0.324-0.05-0.192-0.142-0.522-0.084-0.354-0.044-0.168-0.142-0.518-0.1-0.374-0.042-0.148-0.142-0.508-0.114-0.398-0.036-0.12-0.146-0.514-0.124-0.416-0.028-0.092-0.15-0.51-0.134-0.444-0.022-0.068-0.16-0.504-0.138-0.462-0.018-0.04-0.156-0.51-0.156-0.48-0.01-0.018-0.164-0.5-0.17-0.498v-0.01l-0.168-0.49-0.174-0.504v-0.028l-0.17-0.462-0.174-0.498-0.028-0.056-0.156-0.436-0.174-0.494-0.188-0.49-0.18-0.49-0.036-0.106-0.152-0.382-0.188-0.49-0.046-0.124-0.146-0.362-0.188-0.486-0.06-0.15-0.138-0.336-0.188-0.476-0.072-0.178-0.128-0.308-0.198-0.476-0.082-0.198-0.12-0.284-0.2-0.482-0.096-0.214-0.11-0.258-0.21-0.48-0.102-0.238-0.106-0.23-0.212-0.47-0.118-0.266-0.092-0.206-0.216-0.476-0.132-0.28-0.078-0.188-0.226-0.466-0.138-0.308-0.078-0.156-0.218-0.476-0.16-0.316-0.06-0.142-0.23-0.46-0.168-0.358-0.056-0.104-0.23-0.462-0.188-0.366-0.04-0.096-0.23-0.462-0.202-0.39-0.032-0.068-0.238-0.45-0.212-0.416-0.022-0.044-0.238-0.454-0.01 0.004c-4.15-7.902-9.042-15.338-14.412-22.462 2.006 9.538 2.446 18.174 1.868 25.77l-0.014 0.134-0.01 0.132-0.014 0.124-0.008 0.088-0.006 0.04a61.872 61.872 0 0 1-0.312 3.056l-0.014 0.12-0.018 0.118a66.27 66.27 0 0 1-2.346 10.964v0.004-0.018l-0.184-0.518-0.018-0.04-0.004-0.014 1.626-68.948-3.116-0.1c-5.942 6.95-11.692 14.032-17.002 21.422l-0.224 0.312-0.224 0.316-0.224 0.316-0.226 0.312-0.004 0.006-0.214 0.312-0.216 0.312-0.224 0.316-0.22 0.308-0.044 0.068-0.174 0.252-0.216 0.316-0.224 0.32-0.216 0.312-0.082 0.118-0.134 0.196-0.214 0.316-0.226 0.32-0.214 0.316-0.114 0.174-0.096 0.142-0.21 0.322-0.216 0.32-0.216 0.32-0.152 0.23-0.06 0.092-0.212 0.32-0.21 0.32-0.216 0.32-0.188 0.288-0.022 0.036-0.21 0.32-0.206 0.326-0.212 0.32-0.202 0.32-0.022 0.022-0.188 0.304-0.21 0.33-0.2 0.32-0.208 0.326-0.054 0.078-0.148 0.246-0.21 0.33-0.198 0.326-0.2 0.33-0.084 0.134-0.124 0.192-0.202 0.334-0.192 0.32-0.208 0.336-0.398 0.654-0.196 0.336-0.192 0.326-0.152 0.246-0.05 0.088-0.192 0.338-0.196 0.33-0.192 0.336-0.184 0.308-0.014 0.022-0.188 0.336-0.196 0.338-0.188 0.33-0.188 0.334-0.028 0.036-0.164 0.302-0.192 0.344-0.184 0.334-0.192 0.336-0.05 0.096-0.128 0.242-0.192 0.338-0.184 0.338-0.184 0.338-0.082 0.152-0.102 0.192-0.188 0.336a152.914 152.914 0 0 0-5.824 12.168l-0.092 0.234-0.102 0.228-0.022 0.05-0.078 0.184-0.092 0.23-0.092 0.23-0.102 0.234-0.1 0.234-0.088 0.238-0.078 0.178-0.018 0.056-0.096 0.234-0.092 0.234-0.096 0.234-0.088 0.238-0.096 0.238-0.096 0.234-0.028 0.064-0.06 0.17-0.096 0.238-0.088 0.238-0.092 0.238-0.096 0.228-0.088 0.238-0.078 0.192-0.014 0.05-0.088 0.238-0.088 0.234-0.092 0.238-0.088 0.238-0.088 0.242-0.088 0.234-0.032 0.084-0.054 0.16-0.088 0.238-0.084 0.242-0.088 0.238-0.082 0.238-0.084 0.248-0.078 0.21-0.014 0.026-0.084 0.242-0.084 0.238-0.082 0.248-0.078 0.238-0.084 0.242-0.082 0.242-0.164 0.49-0.084 0.238-0.078 0.252-0.082 0.238-0.074 0.248-0.082 0.23v0.014l-0.078 0.242-0.078 0.252-0.084 0.248-0.074 0.246-0.072 0.248-0.078 0.242-0.036 0.114-0.04 0.134-0.074 0.252-0.078 0.242-0.078 0.246-0.068 0.252-0.074 0.248-0.078 0.246-0.068 0.252-0.078 0.244-0.068 0.256a131.014 131.014 0 0 0-4.48 23.442l31.858 0.976h0.006l11.764 0.362-0.15 6.212-43.622-1.342 0.018 0.056 0.022 0.044 0.024 0.052 0.022 0.05 0.022 0.05 0.024 0.046 0.022 0.05 0.022 0.05 0.024 0.05 0.022 0.046 0.018 0.032v0.018l0.028 0.05 0.022 0.052 0.018 0.044 0.028 0.056 0.018 0.046 0.028 0.05 0.022 0.046 0.018 0.05 0.028 0.05 0.018 0.046 0.014 0.022 0.014 0.032 0.022 0.04 0.018 0.046 0.028 0.054 0.018 0.042 0.026 0.044 0.018 0.056 0.028 0.046 0.024 0.044 0.044 0.102 0.006 0.004 0.022 0.036 0.022 0.056 0.024 0.046 0.022 0.044 0.024 0.05 0.026 0.052 0.024 0.04 0.022 0.05 0.028 0.04v0.01l0.018 0.046 0.022 0.032v0.014l0.028 0.046 0.022 0.044 0.028 0.05 0.024 0.042 0.028 0.05 0.022 0.046 0.028 0.044 0.018 0.052 0.026 0.04 0.028 0.046 0.01 0.026 0.014 0.024 0.022 0.05 0.022 0.04 0.032 0.052 0.022 0.04 0.018 0.05 0.028 0.046 0.028 0.044 0.022 0.046 0.028 0.04 0.022 0.052 0.04 0.068 0.036 0.072 0.036 0.074 0.036 0.068 0.04 0.074 0.04 0.068 0.01 0.014 0.028 0.056 0.04 0.072 0.042 0.068 0.04 0.074 0.032 0.068 0.042 0.068 0.018 0.028 0.028 0.036 0.042 0.078 0.04 0.068 0.036 0.064 0.04 0.068 0.04 0.072 0.124 0.202 0.036 0.068 0.04 0.074 0.036 0.064 0.04 0.056 0.004 0.014 0.042 0.068 0.04 0.068 0.046 0.068 0.04 0.064 0.082 0.138h0.006l0.16 0.266 0.04 0.064 0.046 0.068 0.014 0.01 0.068 0.124 0.046 0.06 0.036 0.068 0.044 0.064 0.046 0.064 0.022 0.028 0.014 0.04 0.046 0.068 0.044 0.056 0.046 0.068 0.084 0.128 0.036 0.046 0.01 0.018 0.046 0.064 0.04 0.068 0.046 0.06 0.046 0.064 0.04 0.064 0.04 0.056h0.006l0.04 0.068 0.05 0.064 0.04 0.064 0.046 0.06 0.04 0.064 0.046 0.06 0.006 0.01 0.04 0.06 0.04 0.06 0.056 0.068 0.06 0.078 0.046 0.074 0.054 0.068 0.024 0.028 0.032 0.046 0.056 0.078 0.06 0.072 0.046 0.064 0.04 0.056 0.014 0.022 0.056 0.068 0.056 0.068 0.06 0.074 0.05 0.072 0.01 0.014 0.046 0.05 0.054 0.078 0.056 0.068 0.056 0.068 0.032 0.042 0.028 0.032 0.056 0.072 0.06 0.07 0.05 0.06 0.056 0.078 0.054 0.068 0.06 0.068 0.05 0.068 0.06 0.068 0.022 0.018 0.036 0.056 0.056 0.06 0.054 0.068 0.056 0.068 0.04 0.056 0.024 0.014 0.054 0.064 0.06 0.072 0.05 0.06 0.118 0.138 0.06 0.068 0.056 0.064 0.064 0.064 0.026 0.036 0.028 0.032 0.06 0.064 0.06 0.064 0.054 0.064 0.05 0.06h83.086l0.01-0.416 0.096-4.196 0.074-3.004-43.128-1.296z m-2.178-41.662l0.04 0.164 1.402-59.428a116.492 116.492 0 0 0-4.626 32.458v0.078l0.01 0.614-0.006 0.316 0.01 0.366v0.568l0.01 0.118 0.014 0.688v0.118l0.01 0.56 0.014 0.37 0.014 0.308 0.024 0.618 0.004 0.05 0.028 0.678 0.01 0.18 0.028 0.494 0.022 0.42 0.014 0.248 0.04 0.66v0.006l0.04 0.664 0.018 0.234 0.032 0.428 0.036 0.47 0.014 0.188 0.06 0.66v0.046l0.054 0.604 0.028 0.284 0.032 0.372 0.054 0.518 0.014 0.134 0.072 0.646 0.01 0.1 0.06 0.546 0.042 0.324 0.032 0.316 0.074 0.56 0.008 0.082 0.088 0.632 0.018 0.156 0.068 0.478 0.046 0.38 0.04 0.252 0.092 0.61 0.004 0.022 0.092 0.624 0.036 0.202 0.064 0.42 0.074 0.422 0.036 0.196 0.1 0.614 0.006 0.026 0.104 0.59 0.042 0.248 0.068 0.362 0.088 0.462 0.032 0.142 0.114 0.604 0.018 0.078 0.106 0.522 0.054 0.298 0.068 0.302 0.102 0.51 0.022 0.092 0.13 0.59 0.026 0.124 0.102 0.468 0.072 0.33 0.068 0.256 0.13 0.536 0.004 0.05 0.144 0.574z" fill="#903B13" p-id="3633"></path><path d="M185.82 699.422c29.338 0.196 51.082 0.916 51.082 1.772 0 0.858-21.742 1.576-51.082 1.772v-3.544z m543.156-11.2v6.076c-28.276-0.338-49.212-1.57-49.212-3.038 0.002-1.466 20.938-2.698 49.212-3.038zM185.82 728.33v-7.248c51.296 0.252 90.75 1.778 90.75 3.624 0 1.848-39.454 3.368-90.75 3.624z m377.664-16.688c59.406 0 107.564 0.94 107.564 2.094 0 1.15-48.158 2.09-107.564 2.09-59.4 0-107.558-0.94-107.558-2.09 0-1.156 48.158-2.094 107.558-2.094z m-200.678 19.336c30.15 0 54.586 1.52 54.586 3.394 0 1.868-24.436 3.39-54.586 3.39-30.144 0-54.584-1.52-54.584-3.39 0-1.872 24.44-3.394 54.584-3.394z m7.568-40.758c44.718 0 80.964 1.868 80.964 4.178 0 2.304-36.248 4.178-80.964 4.178-44.712 0-80.96-1.872-80.96-4.178 0.002-2.31 36.248-4.178 80.96-4.178z" fill="#B1E9F1" p-id="3634"></path></svg>