<?xml version="1.0" standalone="no"?><!DOCTYPE svg PUBLIC "-//W3C//DTD SVG 1.1//EN" "http://www.w3.org/Graphics/SVG/1.1/DTD/svg11.dtd"><svg t="1532348975320" class="icon" style="" viewBox="0 0 1024 1024" version="1.1" xmlns="http://www.w3.org/2000/svg" p-id="3749" xmlns:xlink="http://www.w3.org/1999/xlink" width="200" height="200"><defs><style type="text/css"></style></defs><path d="M511.994 0C794.77 0 1024 229.23 1024 511.994 1024 794.77 794.77 1024 511.994 1024 229.23 1024 0 794.77 0 511.994 0 229.23 229.23 0 511.994 0z" fill="#B1E9F1" p-id="3750"></path><path d="M13.594 629.602h996.81C957.26 855.688 754.29 1024 511.994 1024S66.74 855.688 13.594 629.602z" fill="#9BCB64" p-id="3751"></path><path d="M390.312 116.518h243.376c15.274 0 27.764 12.492 27.764 27.764v515.586H362.548V144.282c0-15.274 12.49-27.764 27.764-27.764z" fill="#FFFFFF" p-id="3752"></path><path d="M362.548 330.064h-128.386v329.804h128.386z" fill="#E6E6E6" p-id="3753"></path><path d="M480.742 284.772h62.516v-81.64h-62.516z" fill="#785448" p-id="3754"></path><path d="M483.936 280.604h56.128V207.3h-56.128z" fill="#B9DDF9" p-id="3755"></path><path d="M525.694 207.3l-20.544 73.304h-17.468l20.532-73.304h17.48z m-10.754 73.304h8.734l16.388-58.476v-14.828h-4.578l-20.544 73.304z" fill="#E1F1FB" p-id="3756"></path><path d="M389.172 284.772h62.516v-81.64h-62.516z" fill="#785448" p-id="3757"></path><path d="M392.354 280.604h56.14V207.3h-56.14z" fill="#B9DDF9" p-id="3758"></path><path d="M434.112 207.3l-20.532 73.304h-17.48l20.544-73.304h17.468z m-10.742 73.304h8.734l16.388-58.476v-14.828h-4.59l-20.532 73.304z" fill="#E1F1FB" p-id="3759"></path><path d="M570.118 284.772h62.514v-81.64h-62.514z" fill="#785448" p-id="3760"></path><path d="M573.3 280.604h56.138V207.3H573.3z" fill="#B9DDF9" p-id="3761"></path><path d="M615.058 207.3l-20.532 73.304h-17.48l20.544-73.304h17.468z m-10.742 73.304h8.734l16.388-58.476v-14.828h-4.578l-20.544 73.304z" fill="#E1F1FB" p-id="3762"></path><path d="M480.742 389.642h62.516v-81.638h-62.516z" fill="#785448" p-id="3763"></path><path d="M483.936 385.474h56.128v-73.302h-56.128z" fill="#B9DDF9" p-id="3764"></path><path d="M525.694 312.172l-20.544 73.304h-17.468l20.532-73.304h17.48z m-10.754 73.302h8.734l16.388-58.476v-14.828h-4.578l-20.544 73.304z" fill="#E1F1FB" p-id="3765"></path><path d="M389.172 389.642h62.516v-81.638h-62.516z" fill="#785448" p-id="3766"></path><path d="M392.354 385.474h56.14v-73.302h-56.14z" fill="#B9DDF9" p-id="3767"></path><path d="M434.112 312.172l-20.532 73.304h-17.48l20.544-73.304h17.468z m-10.742 73.302h8.734l16.388-58.476v-14.828h-4.59l-20.532 73.304z" fill="#E1F1FB" p-id="3768"></path><path d="M570.118 389.642h62.514v-81.638h-62.514z" fill="#785448" p-id="3769"></path><path d="M573.3 385.474h56.138v-73.302H573.3z" fill="#B9DDF9" p-id="3770"></path><path d="M615.058 312.172l-20.532 73.304h-17.48l20.544-73.304h17.468z m-10.742 73.302h8.734l16.388-58.476v-14.828h-4.578l-20.544 73.304z" fill="#E1F1FB" p-id="3771"></path><path d="M480.742 494.502h62.516v-81.626h-62.516z" fill="#785448" p-id="3772"></path><path d="M483.936 490.346h56.128v-73.304h-56.128z" fill="#B9DDF9" p-id="3773"></path><path d="M525.694 417.042l-20.544 73.304h-17.468l20.532-73.304h17.48z m-10.754 73.304h8.734l16.388-58.476v-14.828h-4.578l-20.544 73.304z" fill="#E1F1FB" p-id="3774"></path><path d="M389.172 494.502h62.516v-81.626h-62.516z" fill="#785448" p-id="3775"></path><path d="M392.354 490.346h56.14v-73.304h-56.14z" fill="#B9DDF9" p-id="3776"></path><path d="M434.112 417.042l-20.532 73.304h-17.48l20.544-73.304h17.468z m-10.742 73.304h8.734l16.388-58.476v-14.828h-4.59l-20.532 73.304z" fill="#E1F1FB" p-id="3777"></path><path d="M570.118 494.502h62.514v-81.626h-62.514z" fill="#785448" p-id="3778"></path><path d="M573.3 490.346h56.138v-73.304H573.3z" fill="#B9DDF9" p-id="3779"></path><path d="M615.058 417.042l-20.532 73.304h-17.48l20.544-73.304h17.468z m-10.742 73.304h8.734l16.388-58.476v-14.828h-4.578l-20.544 73.304z" fill="#E1F1FB" p-id="3780"></path><path d="M428.666 159.402h166.67c18.748 0 34.08-15.332 34.08-34.092 0-18.748-15.332-34.08-34.08-34.08h-166.67c-18.748 0-34.092 15.332-34.092 34.08 0 18.76 15.342 34.092 34.092 34.092z" fill="#FF7042" p-id="3781"></path><path d="M509.188 659.21h-62.514v-109.52h62.514z" fill="#785448" p-id="3782"></path><path d="M505.996 653.61h-56.128v-98.332h56.128z" fill="#B9DDF9" p-id="3783"></path><path d="M464.248 555.278l20.532 98.332h17.468l-20.532-98.332h-17.468z m10.742 98.332h-8.734l-16.388-78.434v-19.898h4.59l20.532 98.332z" fill="#E1F1FB" p-id="3784"></path><path d="M509.188 659.21h62.514v-109.52h-62.514z" fill="#785448" p-id="3785"></path><path d="M512.394 653.61h56.116v-98.332h-56.116z" fill="#B9DDF9" p-id="3786"></path><path d="M525.8 555.278l19.172 98.332h16.306l-19.172-98.332H525.8z m10.026 98.332h-8.148l-15.286-78.434v-19.898h4.274l19.16 98.332z" fill="#E1F1FB" p-id="3787"></path><path d="M511.148 600.266a2.546 2.546 0 1 1 0 5.096 2.536 2.536 0 0 1-2.536-2.548 2.536 2.536 0 0 1 2.536-2.548z" fill="#9F877E" p-id="3788"></path><path d="M510.338 600.912a0.84 0.84 0 0 1 0.846 0.834 0.84 0.84 0 0 1-1.68 0 0.838 0.838 0 0 1 0.834-0.834z" fill="#FFF7C3" p-id="3789"></path><path d="M408.038 567.594h202.44l-38.776-34.668h-125.028z" fill="#FFA98F" p-id="3790"></path><path d="M408.038 567.594h202.44v15.226h-202.44z" fill="#FF7042" p-id="3791"></path><path d="M267.102 435.122h62.504v-81.638h-62.504z" fill="#785448" p-id="3792"></path><path d="M270.284 430.954h56.14v-73.29h-56.14z" fill="#B9DDF9" p-id="3793"></path><path d="M312.042 357.664l-20.532 73.292h-17.48l20.544-73.292h17.468z m-10.752 73.29h8.746l16.388-58.464v-14.828h-4.59l-20.544 73.292z" fill="#E1F1FB" p-id="3794"></path><path d="M789.838 330.064h-128.386v329.804h128.386z" fill="#E6E6E6" p-id="3795"></path><path d="M267.56 557.322h62.514v-81.638H267.56z" fill="#785448" p-id="3796"></path><path d="M270.754 553.154h56.128v-73.304h-56.128z" fill="#B9DDF9" p-id="3797"></path><path d="M312.5 479.85l-20.532 73.304h-17.468l20.532-73.304h17.468z m-10.742 73.304h8.734l16.388-58.476v-14.828h-4.578l-20.544 73.304z" fill="#E1F1FB" p-id="3798"></path><path d="M693.08 435.122h62.502v-81.638H693.08z" fill="#785448" p-id="3799"></path><path d="M696.262 430.954H752.4v-73.29h-56.138z" fill="#B9DDF9" p-id="3800"></path><path d="M738.02 357.664l-20.532 73.292h-17.48l20.544-73.292h17.468z m-10.742 73.29h8.734l16.388-58.464v-14.828h-4.578l-20.544 73.292z" fill="#E1F1FB" p-id="3801"></path><path d="M693.538 557.322h62.514v-81.638h-62.514z" fill="#785448" p-id="3802"></path><path d="M696.73 553.154h56.128v-73.304h-56.128z" fill="#B9DDF9" p-id="3803"></path><path d="M738.478 479.85l-20.532 73.304h-17.468l20.532-73.304h17.468z m-10.742 73.304h8.734l16.388-58.476v-14.828h-4.578l-20.544 73.304z" fill="#E1F1FB" p-id="3804"></path><path d="M419.298 145.514V105.106h8.17v15.92h15.92v-15.92h8.182v40.408h-8.182v-17.656h-15.92v17.656h-8.17z m39.046-19.958c0-4.12 0.622-7.584 1.854-10.378a18.892 18.892 0 0 1 3.768-5.552c1.584-1.632 3.322-2.842 5.212-3.652 2.524-1.056 5.436-1.596 8.722-1.596 5.964 0 10.718 1.854 14.3 5.552 3.58 3.698 5.366 8.852 5.366 15.438 0 6.54-1.784 11.658-5.33 15.344-3.546 3.698-8.288 5.542-14.216 5.542-6.01 0-10.8-1.844-14.346-5.518-3.546-3.662-5.33-8.722-5.33-15.18z m8.406-0.27c0 4.578 1.068 8.054 3.182 10.424 2.124 2.36 4.814 3.546 8.066 3.546 3.264 0 5.928-1.174 8.03-3.522 2.09-2.348 3.134-5.87 3.134-10.566 0-4.638-1.022-8.088-3.064-10.366-2.02-2.29-4.732-3.428-8.1-3.428-3.37 0-6.092 1.162-8.148 3.464-2.056 2.312-3.1 5.788-3.1 10.448z m46.266 20.228V111.938h-11.962v-6.832h32.062v6.832H521.2v33.576h-8.184z m25.38 0V105.106h29.902v6.832H546.58v8.97h20.204v6.832H546.58v10.954h22.516v6.82h-30.7z m37.874 0V105.458h8.182v33.236h20.252v6.82h-28.434z" fill="#FFFFFF" p-id="3805"></path><path d="M789.838 584.464v45.14h220.566a514.834 514.834 0 0 0 8.464-45.14H789.838zM13.594 629.602a510.434 510.434 0 0 1-8.464-45.14H234.16v45.14H13.594z" fill="#689D38" p-id="3806"></path><path d="M346.076 659.868h14.088l-40.83 326.6a525.684 525.684 0 0 1-13.396-5.658l40.138-320.942z" fill="#FFFFFF" p-id="3807"></path><path d="M305.95 980.81l40.126-320.942H234.16v-30.266H13.594C50.668 787.268 160.6 916.828 305.95 980.81z" fill="#969696" p-id="3808"></path><path d="M45.034 709.844a6.254 6.254 0 0 1-3.076 5.388 469.714 469.714 0 0 1-5.236-12.55h2.066a6.242 6.242 0 0 1 6.246 6.246v0.916z" fill="#BBBBBB" p-id="3809"></path><path d="M32.766 692.516c26.18-15.38 78.104-45.374 127.892-31.768 0 0 11.61 2.77 30.194 18.15 0 0 101.608-5.67 120.192 25.416 0 0-9.884 16.752-85.83 20.604 0 0-123.162 1.232-155.118 0.364 0 0-9.85 0.95-23.316-7.454l-5.084-3.182a523.616 523.616 0 0 1-8.93-22.13z" fill="#FFB100" p-id="3810"></path><path d="M75.932 725.88l54.73 0.306c0-9.626-5.012-19.664-12.586-23.502H88.506c-7.56 3.838-12.574 13.582-12.574 23.196z" fill="#333333" p-id="3811"></path><path d="M80.242 724.672c0 12.726 10.33 23.046 23.056 23.046s23.056-10.32 23.056-23.046c0-12.75-10.33-22.776-23.056-22.776s-23.056 10.026-23.056 22.776z" fill="#424242" p-id="3812"></path><path d="M85.7 724.672c0 9.708 7.89 17.586 17.598 17.586s17.598-7.878 17.598-17.586c0-9.72-7.89-17.598-17.598-17.598s-17.598 7.876-17.598 17.598z" fill="#FFFFFF" p-id="3813"></path><path d="M89.292 724.672a14 14 0 1 0 28 0c0-7.736-6.27-14.006-13.994-14.006s-14.006 6.268-14.006 14.006z" fill="#BBBBBB" p-id="3814"></path><path d="M266.304 720.82c0.928-0.376 4.308-0.482 4.286-0.728-0.916-11.598-13.384-22.552-26.954-22.552-15.11 0-27.366 11.986-27.366 27.378l50.422 0.094-0.388-4.192z" fill="#333333" p-id="3815"></path><path d="M220.578 725.012c0 12.726 10.33 23.056 23.056 23.056 12.738 0 23.056-10.33 23.056-23.056 0-12.738-10.32-23.056-23.056-23.056-12.724 0-23.056 10.318-23.056 23.056z" fill="#424242" p-id="3816"></path><path d="M226.038 725.012c0 9.708 7.878 17.586 17.598 17.586 9.72 0 17.598-7.878 17.598-17.586 0-9.72-7.878-17.586-17.598-17.586-9.722 0-17.598 7.866-17.598 17.586z" fill="#FFFFFF" p-id="3817"></path><path d="M229.642 725.012a13.99 13.99 0 0 0 13.994 13.982 13.99 13.99 0 0 0 13.994-13.982 14.002 14.002 0 0 0-13.994-14.006 14 14 0 0 0-13.994 14.006z" fill="#BBBBBB" p-id="3818"></path><path d="M105.858 681.822l-8.886-18.902c-17.54 5.002-33.646 12.62-46.842 19.734 38.094 3.124 55.728-0.832 55.728-0.832zM112.878 664.81s11.446 19.558 25.922 19.558c0 0 34.562 2.302 51.878-5.612-15.05-12.432-25.51-16.564-28.856-17.668-16.554 0.506-48.462 1.714-48.944 3.722z" fill="#FFFFFF" p-id="3819"></path><path d="M148.284 695.028a1.914 1.914 0 0 1-1.914 1.914h-9.58a1.92 1.92 0 1 1 0-3.84h9.58a1.918 1.918 0 0 1 1.914 1.926z" fill="#333333" p-id="3820"></path><path d="M297.38 704.866a5.162 5.162 0 1 1-5.166-5.154 5.164 5.164 0 0 1 5.166 5.154z" fill="#FFFFFF" p-id="3821"></path><path d="M198.12 788.3s40.878 1.162 54.46 2.278c16.13 1.326 46.924 8.888 46.924 21.542 0 18.314-13.712 31.404-24.524 31.404-33.752 0-98.132-0.152-153.368-0.294a513.99 513.99 0 0 1-53.674-76.202 110.284 110.284 0 0 1 15.93-1.198s26.05-0.904 37.556-1.022c18.044-0.198 31.416 0.026 76.696 23.492z" fill="#FF3C00" p-id="3822"></path><path d="M293.87 808.576c-0.504 1.49-8.03 0.364-16.812-2.548-8.782-2.9-15.496-6.468-15.016-7.972 0.504-1.502 8.03-0.352 16.812 2.548 8.794 2.912 15.508 6.48 15.016 7.972z" fill="#FBF47E" p-id="3823"></path><path d="M215.742 836.668H116.106c1.96 2.394 3.968 4.766 5.976 7.126h93.66v-7.126z" fill="#DB2C00" p-id="3824"></path><path d="M267.514 830.552c0 15.672-12.702 28.364-28.364 28.364s-28.364-12.69-28.364-28.364c0-15.66 12.702-28.364 28.364-28.364s28.364 12.704 28.364 28.364z" fill="#424242" p-id="3825"></path><path d="M258.216 830.552c0 10.53-8.546 19.066-19.066 19.066a19.056 19.056 0 0 1-19.066-19.066 19.06 19.06 0 0 1 19.066-19.066c10.52 0 19.066 8.536 19.066 19.066z" fill="#BBBBBB" p-id="3826"></path><path d="M243.776 830.552a4.628 4.628 0 1 1-9.25-0.002 4.628 4.628 0 0 1 9.25 0.002zM84.304 793.49c3.322 0.258 7.02 0.41 11.164 0.41h73.044s16.682-0.41 29.608-5.072c-0.422-0.024 0 0 0 0-16.236-8.418-28.364-14.1-38.084-17.598-47.922-2.066-74.114-0.786-88.882 1.232a508.552 508.552 0 0 0 13.15 21.028z" fill="#FFFFFF" p-id="3827"></path><path d="M79.266 785.73v-17.292h4.074v23.596a451.624 451.624 0 0 1-4.074-6.304zM186.322 792.82l-2.09 4.05-52.618-27.024 2.078-4.05z" fill="#FF3C00" p-id="3828"></path><path d="M109.308 805.1c0 1.256-1.01 2.042-2.278 2.042h-11.376c-1.268 0-2.278-0.786-2.278-2.042s1.01-2.03 2.278-2.03h11.376c1.27 0 2.278 0.774 2.278 2.03z" fill="#333333" p-id="3829"></path><path d="M255.926 124.37c27.658 0 50.082 22.422 50.082 50.082s-22.422 50.082-50.082 50.082-50.082-22.422-50.082-50.082 22.424-50.082 50.082-50.082z" fill="#FFFF00" p-id="3830"></path><path d="M712.802 213.922s11.54-2.478 21.202-0.634c9.674 1.854 19.758 9.884 30.676 10.508 10.906 0.61 8.64-3.498 8.64-3.498s-7.008 1.034-8.864-4.942c-1.844-5.964 5.776-10.706 17.492-18.924 11.74-8.242 14.006-16.47 11.74-21.624 0 0-2.066 3.298-11.74 8.44-9.674 5.154-16.658 14.628-24.266 21.402-7.62 6.798-8.042 7.208-15.238 5.764-7.194-1.446-22.632-3.7-29.642 3.508zM703.058 282.4s11.54-2.478 21.19-0.622c9.686 1.854 19.77 9.874 30.676 10.496 10.906 0.61 8.64-3.498 8.64-3.498s-6.996 1.034-8.852-4.93c-1.844-5.976 5.764-10.718 17.492-18.936 11.74-8.23 14.006-16.47 11.74-21.612 0 0-2.066 3.288-11.74 8.44-9.674 5.142-16.658 14.616-24.278 21.39-7.62 6.798-8.03 7.208-15.238 5.776-7.194-1.446-22.632-3.712-29.63 3.496zM838.912 250.198s11.54-2.478 21.19-0.622c9.686 1.854 19.758 9.874 30.676 10.496 10.906 0.61 8.64-3.498 8.64-3.498s-6.996 1.034-8.864-4.93c-1.832-5.976 5.776-10.718 17.504-18.936 11.74-8.23 13.994-16.47 11.74-21.624 0 0-2.066 3.298-11.74 8.452-9.674 5.142-16.67 14.616-24.278 21.39-7.62 6.798-8.03 7.208-15.238 5.776-7.196-1.446-22.634-3.712-29.63 3.496z" fill="" p-id="3831"></path><path d="M931.936 541.942c0.234 0.95-0.61 1.76-0.88 1.984 1.596-1.28 2.36 0.282 2.36 0.282 2.336 0.364-0.118 2.218-0.118 2.218-0.846 0.328-1.398-0.564-1.398-0.564-2.136 1.044-0.94 1.656-0.94 1.656 1.596-0.364 0.646 1.01 0.646 1.01l-0.974 0.152-1.162 0.622 0.058 0.422 0.88-0.13 0.094 0.692-1.044 0.482 0.318 0.774c1.198 1.714-2.842 2.536-2.842 2.536-0.634 5.154-5.448 3.298-6.574 2.794a9.196 9.196 0 0 1-2.758 0.822 9.344 9.344 0 0 1-6.68-1.62c-1.408 0.282-2.958-0.13-2.958-0.13-1.632 0.176-0.986-2.23-0.986-2.23-1.28 2.664-3.146 0.364-3.146 0.364-1.784-1.902 0.364-3.028 0.364-3.028-1.034-1.162 0.388-2.124 0.388-2.124-2.712-0.504-3.346-1.902-3.464-2.77a24.456 24.456 0 0 1-2.654-0.998 23.308 23.308 0 0 1-6.82 2.042 23.022 23.022 0 0 1-16.494-4.016c-3.522 0.692-7.338-0.294-7.338-0.294-4.062 0.41-2.454-5.53-2.454-5.53-2.184 4.556-5.036 3.252-6.61 2.008 0.294 1.398-3.064 2.09-3.064 2.09-0.622 5.142-5.424 3.288-6.562 2.782a9.374 9.374 0 0 1-9.426-0.798c-1.42 0.294-2.958-0.13-2.958-0.13-1.644 0.176-0.986-2.23-0.986-2.23-1.28 2.676-3.158 0.364-3.158 0.364-1.772-1.902 0.388-3.018 0.388-3.018-1.034-1.186 0.376-2.136 0.376-2.136-4.038-0.764-3.464-3.486-3.464-3.486-1.854-2.406-0.036-4.472-0.036-4.472a2.454 2.454 0 0 1-0.564-0.622 9.254 9.254 0 0 1-6.198-1.678c-1.42 0.282-2.982-0.13-2.982-0.13-1.656 0.188-0.998-2.242-0.998-2.242-1.28 2.7-3.158 0.376-3.158 0.376-1.808-1.914 0.364-3.04 0.364-3.04-1.034-1.186 0.4-2.16 0.4-2.16-4.074-0.752-3.498-3.498-3.498-3.498-1.854-2.43-0.024-4.508-0.024-4.508-1.62-1.304-0.14-2.618-0.14-2.618-0.516-1.596 1.75-1.538 1.75-1.538-2.266-4.332 1.772-4.826 1.772-4.826 0.728-2.09 2.536-0.81 2.536-0.81 0.916-2.324 4.074-0.576 4.074-0.576-0.94-1.984 2.032-1.996 2.032-1.996 0.576-0.316 1.104-0.352 1.55-0.246-0.012-0.258 0.036-0.422 0.036-0.422-1.854-2.406-0.046-4.472-0.046-4.472-1.596-1.314-0.118-2.642-0.118-2.642-0.224-0.692 0.07-1.068 0.482-1.28-1.796-4.18 1.092-7.454 1.092-7.454-3.37-2.748-0.282-5.494-0.282-5.494-1.092-3.358 3.674-3.252 3.674-3.252-4.766-9.086 3.674-10.096 3.674-10.096 1.538-4.368 5.33-1.726 5.33-1.726 1.914-4.826 8.546-1.162 8.546-1.162-1.96-4.168 4.262-4.202 4.262-4.202 4.18-2.324 7.09 2.63 7.09 2.63 2.488-3.24 4.544-4.368 6.176-4.438-1.386-4.508 3.182-5.072 3.182-5.072 1.034-2.924 3.558-1.15 3.558-1.15 1.292-3.228 5.718-0.774 5.718-0.774-1.304-2.782 2.864-2.806 2.864-2.806 2.794-1.562 4.742 1.76 4.742 1.76 4.954-6.468 7.372-0.364 7.372-0.364 8.418-4.12 9.78 3.674 9.78 3.674 1.714-2.196 4.016 0.058 6.234 3.204 1.456 2.09 0.516 3.992-0.294 5.036 1.456 0.834 2.348 2.312 2.348 2.312 6.54-8.534 9.732-0.458 9.732-0.458 11.082-5.47 12.89 4.836 12.89 4.836 2.242-2.9 5.282 0.07 8.23 4.238 2.924 4.168-1.42 7.724-1.42 7.724 3.064 2.654-1.574 4.462-1.574 4.462 2.478 2.384 0.024 4.742-0.61 5.272 2.934-2.384 4.368 0.528 4.368 0.528 4.344 0.704-0.212 4.144-0.212 4.144-1.574 0.61-2.582-1.044-2.582-1.044-2.148 1.056-2.488 1.866-2.36 2.394 5.424-1.268 6.386 4.214 6.386 4.214 1.538-1.984 3.628 0.046 5.636 2.9 1.996 2.852-0.974 5.282-0.974 5.282 2.102 1.832-1.08 3.064-1.08 3.064 1.714 1.62 0.012 3.24-0.422 3.616 2.03-1.656 3.006 0.34 3.006 0.34 2.958 0.482-0.152 2.852-0.152 2.852-1.092 0.41-1.772-0.728-1.772-0.728-0.774 0.388-1.21 0.74-1.432 1.022 2.008 0.81 2.442 3.228 2.442 3.228 1.198-1.574 2.83 0.036 4.426 2.29 1.584 2.242-0.764 4.168-0.764 4.168 1.656 1.444-0.846 2.43-0.846 2.43 1.338 1.268 0.012 2.548-0.34 2.83 1.608-1.292 2.372 0.27 2.372 0.27 2.336 0.388-0.118 2.254-0.118 2.254-0.858 0.328-1.398-0.552-1.398-0.552-2.148 1.044-0.962 1.644-0.962 1.644 1.632-0.352 0.67 1.034 0.67 1.034l-0.998 0.13-1.174 0.658 0.082 0.388 0.892-0.106 0.082 0.68-1.056 0.482 0.328 0.798c1.21 1.714-2.876 2.56-2.876 2.56-0.622 5.166-5.482 3.31-6.586 2.794-0.868 0.4-1.796 0.692-2.782 0.822a9.386 9.386 0 0 1-6.716-1.632l-0.596 0.082z" fill="#9BCB64" p-id="3832"></path><path d="M884.614 623.404s-0.434-2.466 0.258-10.894l-2.406-27.236s-0.422-10.002 0.868-12.89c0 0 19.618-19.054 23.608-20.11 0 0 2.852-24.936 6.422-25.428l-3.558-2.102s-3.204 23.55-5.518 27.142c0 0-9.052-34.046-7.642-37.638l-1.314 1.022s4.25 33.986 3.464 36.334l-5.8 5.976s-1.972 6.01-3.17 3.288c0 0-11.07-6.762-5.6-42.298l-4.45-2.876-3.686 23.398s2.56-0.012 1.42 5.928c0 0 4.52 14.134 3.816 15.532 0 0-1.08 6.738-4.026 4.754l-6.186-14.628s-5.224-20.896-1.702-24.114l-1.35-1.69s-2.324 10.366-0.446 17.938c0 0-9.498-10.518-12.432-10.496l0.082 1.902s1.796-3.734 11.598 10.578c0 0 6.75 18.972 6.974 22.682 0 0-0.786 11.352-0.306 13.488 0 0 5.894 30.288-3.828 39.398l14.91 3.04z" fill="#4E342E" p-id="3833"></path><path d="M188.682 528.746c0.234 0.94-0.61 1.76-0.88 1.972 1.596-1.28 2.36 0.282 2.36 0.282 2.336 0.376-0.118 2.23-0.118 2.23-0.846 0.328-1.398-0.576-1.398-0.576-2.136 1.056-0.94 1.668-0.94 1.668 1.596-0.376 0.646 1.01 0.646 1.01l-0.974 0.14-1.162 0.622 0.058 0.422 0.88-0.118 0.094 0.68-1.044 0.482 0.316 0.786c1.198 1.714-2.842 2.536-2.842 2.536-0.646 5.154-5.448 3.298-6.586 2.782a8.726 8.726 0 0 1-2.748 0.834 9.292 9.292 0 0 1-6.68-1.632c-1.408 0.294-2.958-0.118-2.958-0.118-1.632 0.164-0.986-2.23-0.986-2.23-1.292 2.664-3.146 0.352-3.146 0.352-1.784-1.89 0.364-3.028 0.364-3.028-1.034-1.162 0.388-2.114 0.388-2.114-2.712-0.504-3.346-1.914-3.464-2.77a25.654 25.654 0 0 1-2.664-0.998 23.48 23.48 0 0 1-6.81 2.042 23.036 23.036 0 0 1-16.494-4.026c-3.522 0.704-7.338-0.294-7.338-0.294-4.062 0.422-2.454-5.518-2.454-5.518-2.172 4.544-5.036 3.252-6.61 1.996 0.282 1.398-3.064 2.102-3.064 2.102-0.622 5.142-5.436 3.288-6.562 2.782-0.846 0.4-1.784 0.68-2.758 0.822a9.436 9.436 0 0 1-6.68-1.62c-1.408 0.282-2.946-0.13-2.946-0.13-1.644 0.176-0.998-2.242-0.998-2.242-1.268 2.688-3.146 0.376-3.146 0.376-1.772-1.902 0.388-3.018 0.388-3.018-1.034-1.186 0.364-2.136 0.364-2.136-4.026-0.774-3.464-3.486-3.464-3.486-1.844-2.406-0.024-4.472-0.024-4.472a2.454 2.454 0 0 1-0.564-0.622 9.236 9.236 0 0 1-6.198-1.678c-1.432 0.282-2.982-0.13-2.982-0.13-1.656 0.176-0.998-2.242-0.998-2.242-1.28 2.688-3.158 0.364-3.158 0.364-1.808-1.902 0.364-3.04 0.364-3.04-1.034-1.174 0.388-2.148 0.388-2.148-4.062-0.764-3.486-3.498-3.486-3.498-1.854-2.43-0.024-4.508-0.024-4.508-1.62-1.304-0.14-2.618-0.14-2.618-0.516-1.596 1.75-1.538 1.75-1.538-2.266-4.344 1.76-4.826 1.76-4.826 0.74-2.09 2.548-0.822 2.548-0.822 0.916-2.312 4.074-0.564 4.074-0.564-0.94-1.984 2.03-2.008 2.03-2.008 0.576-0.316 1.092-0.352 1.55-0.234 0-0.258 0.036-0.422 0.036-0.422-1.854-2.406-0.036-4.472-0.036-4.472-1.608-1.326-0.13-2.642-0.13-2.642-0.234-0.692 0.07-1.068 0.482-1.28-1.796-4.18 1.092-7.454 1.092-7.454-3.382-2.748-0.282-5.506-0.282-5.506-1.092-3.346 3.674-3.24 3.674-3.24-4.754-9.086 3.674-10.096 3.674-10.096 1.538-4.368 5.318-1.726 5.318-1.726 1.926-4.826 8.558-1.174 8.558-1.174-1.96-4.156 4.262-4.192 4.262-4.192 4.168-2.324 7.09 2.618 7.09 2.618 2.488-3.228 4.544-4.356 6.176-4.426-1.386-4.508 3.182-5.072 3.182-5.072 1.034-2.924 3.546-1.15 3.546-1.15 1.304-3.228 5.73-0.786 5.73-0.786-1.304-2.77 2.864-2.794 2.864-2.794 2.794-1.562 4.742 1.75 4.742 1.75 4.954-6.468 7.372-0.352 7.372-0.352 8.418-4.132 9.78 3.674 9.78 3.674 1.714-2.208 4.014 0.046 6.234 3.194 1.456 2.102 0.504 4.004-0.294 5.036 1.468 0.834 2.336 2.324 2.336 2.324 6.55-8.546 9.732-0.47 9.732-0.47 11.094-5.458 12.902 4.848 12.902 4.848 2.242-2.9 5.294 0.07 8.23 4.238 2.912 4.168-1.42 7.714-1.42 7.714 3.064 2.664-1.584 4.472-1.584 4.472 2.488 2.372 0.024 4.742-0.598 5.272 2.934-2.384 4.368 0.528 4.368 0.528 4.332 0.692-0.212 4.144-0.212 4.144-1.584 0.598-2.594-1.044-2.594-1.044-2.136 1.056-2.488 1.866-2.348 2.384 5.424-1.256 6.398 4.226 6.398 4.226 1.526-1.984 3.616 0.046 5.624 2.888 1.996 2.852-0.974 5.294-0.974 5.294 2.102 1.82-1.08 3.064-1.08 3.064 1.714 1.62 0.012 3.24-0.422 3.616 2.03-1.656 3.006 0.34 3.006 0.34 2.958 0.482-0.14 2.852-0.14 2.852-1.104 0.4-1.784-0.728-1.784-0.728-0.786 0.388-1.21 0.728-1.432 1.022 2.008 0.798 2.442 3.216 2.442 3.216 1.198-1.574 2.83 0.036 4.426 2.29 1.584 2.254-0.764 4.18-0.764 4.18 1.656 1.432-0.856 2.418-0.856 2.418 1.35 1.268 0.012 2.56-0.328 2.842 1.608-1.304 2.372 0.27 2.372 0.27 2.336 0.388-0.118 2.254-0.118 2.254-0.868 0.328-1.398-0.564-1.398-0.564-2.148 1.056-0.962 1.644-0.962 1.644 1.62-0.352 0.67 1.044 0.67 1.044l-0.998 0.13-1.162 0.658 0.07 0.376 0.88-0.094 0.094 0.67-1.044 0.494 0.316 0.798c1.21 1.702-2.876 2.548-2.876 2.548-0.634 5.166-5.482 3.31-6.598 2.794-0.868 0.4-1.784 0.704-2.77 0.834a9.492 9.492 0 0 1-6.716-1.632l-0.592 0.078z" fill="#9BCB64" p-id="3834"></path><path d="M141.358 610.208s-0.434-2.478 0.258-10.894l-2.406-27.236s-0.422-10.002 0.868-12.902c0 0 19.628-19.042 23.596-20.098 0 0 2.852-24.936 6.434-25.428l-3.558-2.114s-3.194 23.562-5.518 27.142c0 0-9.052-34.046-7.642-37.638l-1.314 1.034s4.25 33.986 3.452 36.334l-5.776 5.976s-1.984 6.01-3.182 3.276c0 0-11.07-6.75-5.6-42.298l-4.45-2.864-3.686 23.386s2.56 0 1.432 5.94c0 0 4.508 14.134 3.804 15.532 0 0-1.08 6.726-4.026 4.754l-6.198-14.64s-5.212-20.886-1.69-24.114l-1.35-1.678s-2.324 10.366-0.446 17.938c0 0-9.498-10.518-12.444-10.508l0.082 1.902s1.82-3.734 11.61 10.59c0 0 6.738 18.972 6.986 22.682 0 0-0.798 11.34-0.328 13.488 0 0 5.906 30.276-3.828 39.386l14.92 3.052z" fill="#4E342E" p-id="3835"></path><path d="M446.674 659.21h125.674v8.054h-125.674z" fill="#FFFFFF" p-id="3836"></path><path d="M439.642 675.318h139.738v-8.054h-139.738z" fill="#E6E6E6" p-id="3837"></path><path d="M432.34 675.318h154.342v8.054H432.34z" fill="#FFFFFF" p-id="3838"></path><path d="M644.536 721.62c14.91 2.83 29.35 6.88 43.824 11.364 26.062 8.076 49.66 15.966 77.002 19.348 40.714 5.048 83.328 0.458 123.478-6.88 26.414-4.836 53.052-4.532 78.644 0.586C882.5 911.098 710.442 1024 511.994 1024c-10.954 0-21.812-0.388-32.602-1.068-25.288-35.948-40.478-79.83-40.478-118.876 0-96.632 108.076-200.916 205.622-182.436z" fill="#FED700" p-id="3839"></path><path d="M524.696 1023.836c-27.154-28.364-46.43-68.514-50.47-105.61 9.262-77.188 98.016-147.944 163.886-135.454 69.57 13.184 108.604 50.986 256.924 23.856a175.422 175.422 0 0 1 37.662-2.794C842.48 933.64 693.76 1019.714 524.696 1023.836z" fill="#9999FF" p-id="3840"></path><path d="M591.166 830.858c42.274 0 76.52 34.256 76.52 76.52 0 42.252-34.244 76.52-76.52 76.52-42.252 0-76.508-34.268-76.508-76.52 0.002-42.264 34.258-76.52 76.508-76.52z m0 33.388c23.844 0 43.144 19.3 43.144 43.132 0 23.832-19.3 43.132-43.144 43.132-23.82 0-43.132-19.3-43.132-43.132 0.002-23.832 19.314-43.132 43.132-43.132z" fill="#FFFFFF" p-id="3841"></path><path d="M661.3 938.03l-31.98-10.496a43.016 43.016 0 0 0 4.99-20.158c0-7.29-1.808-14.134-4.99-20.158l31.98-10.508c4.108 9.392 6.386 19.77 6.386 30.664s-2.276 21.264-6.386 30.656z m-70.134-107.172a76.132 76.132 0 0 1 30.676 6.398l-10.508 31.98a42.882 42.882 0 0 0-20.168-4.99c-7.278 0-14.122 1.796-20.146 4.99l-10.508-31.98a76.12 76.12 0 0 1 30.654-6.398z m30.676 146.64a76.334 76.334 0 0 1-30.676 6.398 76.306 76.306 0 0 1-30.652-6.398l10.508-31.99a42.68 42.68 0 0 0 20.146 5.002c7.29 0 14.146-1.796 20.168-5.002l10.506 31.99z m-100.784-39.468c-4.108-9.392-6.398-19.758-6.398-30.652s2.29-21.272 6.398-30.664l31.98 10.508a42.81 42.81 0 0 0-5.002 20.158c0 7.278 1.808 14.134 5.002 20.158l-31.98 10.492z" fill="#FF0000" p-id="3842"></path><path d="M474.228 918.224c9.25-77.188 98.016-147.944 163.886-135.454 69.57 13.184 108.604 50.986 256.924 23.856a175.422 175.422 0 0 1 37.662-2.794 514.22 514.22 0 0 0 16.846-25.816c-17.374-2.324-35.678-2.066-54.508 1.386-148.32 27.118-187.354-10.672-256.924-23.856-69.582-13.196-164.686 66.494-164.686 148.508a129.72 129.72 0 0 0 0.8 14.17z" fill="#8383FF" p-id="3843"></path><path d="M622.09 736.986h-0.012a5.03 5.03 0 0 0-5.024 5.024v17.762l-20.38 4.884v-8.17a5.04 5.04 0 0 0-5.024-5.036h-0.012a5.04 5.04 0 0 0-5.024 5.036v49.306a5.04 5.04 0 0 0 5.024 5.036h0.012a5.04 5.04 0 0 0 5.024-5.036v-18.454l20.38-4.872v8.864a5.038 5.038 0 0 0 5.024 5.024h0.012a5.038 5.038 0 0 0 5.024-5.024v-49.318a5.03 5.03 0 0 0-5.024-5.026z m-25.418 33.706l20.38-4.872v10.612l-20.38 4.872v-10.612z" fill="#FFFFFF" p-id="3844"></path></svg>